<?xml version='1.0' encoding='utf-8'?>
<svg xmlns="http://www.w3.org/2000/svg" font-family="ConsolasFallback,Consolas,monospace" width="750px" height="900px" font-size="16px">      

  <style>
    .ascii  { fill: #363534 ; }
    .key    { fill: #EA664D; }
    .value  { fill: #007096; }
    .cc   { fill: #b5b3afff; }
    .addColor {fill: #1a7f37;}
    .delColor {fill: #cf222e;}
    text, tspan { white-space: pre; }
      .st0 {
        fill: #f6df19;
      }

      .st1 {
        fill: #010101;
      }
  </style>

  
<rect width="750px" height="900px" fill="#ffffff" rx="15" />

<text x="15" y="30" fill="#24292f">

<tspan x="18" y="30">hemanthp-txst --------------------------------------------------------</tspan> 
<tspan x="18" y="55" class="cc">. </tspan><tspan class="key">About Me</tspan>: 
<tspan x="50" y="83" class="value">Hello, It is a pleasure to meet you. I am a Web and UX designer at </tspan>
<tspan x="50" y="108" class="value">Texas State University Libraries.</tspan>



<tspan x="18" y="145">- TechStack ----------------------------------------------------------</tspan> 

<tspan x="18" y="175" class="cc">. </tspan><tspan class="key">IDE</tspan>:  
<tspan x="18" y="280" class="cc">. </tspan><tspan class="key">Languages</tspan>.<tspan class="key">Programming</tspan>:
<tspan x="18" y="390" class="cc">. </tspan><tspan class="key">Version Control</tspan>:
<tspan x="18" y="490" class="cc">. </tspan><tspan class="key">Web</tspan>.<tspan class="key">Frameworks</tspan>:
<tspan x="18" y="590" class="cc">. </tspan><tspan class="key">Databases</tspan>:

<tspan x="18" y="690" class="cc">. </tspan><tspan class="key">OS</tspan>:

<tspan x="18" y="795">- Github Stats --------------------------------------------------------</tspan> 

<tspan x="20" y="825" class="cc">. </tspan><tspan class="key">Repos</tspan>:<tspan class="cc" id="repo_data_dots"> ................. </tspan><tspan class="value" id="repo_data">1</tspan> {<tspan class="key">Contributed</tspan>: <tspan class="value" id="contrib_data">365</tspan>} | <tspan class="key">Stars</tspan>:<tspan class="cc" id="star_data_dots"> ........... </tspan><tspan class="value" id="star_data">0</tspan>
<tspan x="20" y="850" class="cc">. </tspan><tspan class="key">Commmits</tspan>:<tspan class="cc" id="commit_data_dots"> ................................ </tspan><tspan class="value" id="commit_data">39</tspan> | <tspan class="key">Followers</tspan>:<tspan class="cc" id="follower_data_dots"> ....... </tspan><tspan class="value" id="follower_data">1</tspan>
<tspan x="20" y="875" class="cc">. </tspan><tspan class="key">Lines of Code on GitHub</tspan>:<tspan class="cc" id="loc_data_dots">...................... </tspan><tspan class="value" id="loc_data">2163</tspan> ( <tspan class="addColor" id="loc_add">1410</tspan><tspan class="addColor">++</tspan>, <tspan id="loc_del_dots"> </tspan><tspan class="delColor" id="loc_del">753</tspan><tspan class="delColor">--</tspan><tspan> ) </tspan>

</text>


<g transform="translate(50, 190) scale(0.5)">
<mask id="mask0" mask-type="alpha" maskUnits="userSpaceOnUse" x="0" y="0" width="100" height="100">
<path fill-rule="evenodd" clip-rule="evenodd" d="M70.9119 99.3171C72.4869 99.9307 74.2828 99.8914 75.8725 99.1264L96.4608 89.2197C98.6242 88.1787 100 85.9892 100 83.5872V16.4133C100 14.0113 98.6243 11.8218 96.4609 10.7808L75.8725 0.873756C73.7862 -0.130129 71.3446 0.11576 69.5135 1.44695C69.252 1.63711 69.0028 1.84943 68.769 2.08341L29.3551 38.0415L12.1872 25.0096C10.589 23.7965 8.35363 23.8959 6.86933 25.2461L1.36303 30.2549C-0.452552 31.9064 -0.454633 34.7627 1.35853 36.417L16.2471 50.0001L1.35853 63.5832C-0.454633 65.2374 -0.452552 68.0938 1.36303 69.7453L6.86933 74.7541C8.35363 76.1043 10.589 76.2037 12.1872 74.9905L29.3551 61.9587L68.769 97.9167C69.3925 98.5406 70.1246 99.0104 70.9119 99.3171ZM75.0152 27.2989L45.1091 50.0001L75.0152 72.7012V27.2989Z" fill="white" />
</mask>
<g mask="url(#mask0)">
<path d="M96.4614 10.7962L75.8569 0.875542C73.4719 -0.272773 70.6217 0.211611 68.75 2.08333L1.29858 63.5832C-0.515693 65.2373 -0.513607 68.0937 1.30308 69.7452L6.81272 74.754C8.29793 76.1042 10.5347 76.2036 12.1338 74.9905L93.3609 13.3699C96.086 11.3026 100 13.2462 100 16.6667V16.4275C100 14.0265 98.6246 11.8378 96.4614 10.7962Z" fill="#0065A9" />
<g filter="url(#filter0_d)">
<path d="M96.4614 89.2038L75.8569 99.1245C73.4719 100.273 70.6217 99.7884 68.75 97.9167L1.29858 36.4169C-0.515693 34.7627 -0.513607 31.9063 1.30308 30.2548L6.81272 25.246C8.29793 23.8958 10.5347 23.7964 12.1338 25.0095L93.3609 86.6301C96.086 88.6974 100 86.7538 100 83.3334V83.5726C100 85.9735 98.6246 88.1622 96.4614 89.2038Z" fill="#007ACC" />
</g>
<g filter="url(#filter1_d)">
<path d="M75.8578 99.1263C73.4721 100.274 70.6219 99.7885 68.75 97.9166C71.0564 100.223 75 98.5895 75 95.3278V4.67213C75 1.41039 71.0564 -0.223106 68.75 2.08329C70.6219 0.211402 73.4721 -0.273666 75.8578 0.873633L96.4587 10.7807C98.6234 11.8217 100 14.0112 100 16.4132V83.5871C100 85.9891 98.6234 88.1786 96.4586 89.2196L75.8578 99.1263Z" fill="#1F9CF0" />
</g>
<g style="mix-blend-mode:overlay" opacity="0.25">
<path fill-rule="evenodd" clip-rule="evenodd" d="M70.8511 99.3171C72.4261 99.9306 74.2221 99.8913 75.8117 99.1264L96.4 89.2197C98.5634 88.1787 99.9392 85.9892 99.9392 83.5871V16.4133C99.9392 14.0112 98.5635 11.8217 96.4001 10.7807L75.8117 0.873695C73.7255 -0.13019 71.2838 0.115699 69.4527 1.44688C69.1912 1.63705 68.942 1.84937 68.7082 2.08335L29.2943 38.0414L12.1264 25.0096C10.5283 23.7964 8.29285 23.8959 6.80855 25.246L1.30225 30.2548C-0.513334 31.9064 -0.515415 34.7627 1.29775 36.4169L16.1863 50L1.29775 63.5832C-0.515415 65.2374 -0.513334 68.0937 1.30225 69.7452L6.80855 74.754C8.29285 76.1042 10.5283 76.2036 12.1264 74.9905L29.2943 61.9586L68.7082 97.9167C69.3317 98.5405 70.0638 99.0104 70.8511 99.3171ZM74.9544 27.2989L45.0483 50L74.9544 72.7012V27.2989Z" fill="url(#paint0_linear)" />
</g>
</g>
<defs>
<filter id="filter0_d" x="-8.39411" y="15.8291" width="116.727" height="92.2456" filterUnits="userSpaceOnUse" color-interpolation-filters="sRGB">
<feFlood flood-opacity="0" result="BackgroundImageFix" />
<feColorMatrix in="SourceAlpha" type="matrix" values="0 0 0 0 0 0 0 0 0 0 0 0 0 0 0 0 0 0 127 0" />
<feOffset />
<feGaussianBlur stdDeviation="4.16667" />
<feColorMatrix type="matrix" values="0 0 0 0 0 0 0 0 0 0 0 0 0 0 0 0 0 0 0.25 0" />
<feBlend mode="overlay" in2="BackgroundImageFix" result="effect1_dropShadow" />
<feBlend mode="normal" in="SourceGraphic" in2="effect1_dropShadow" result="shape" />
</filter>
<filter id="filter1_d" x="60.4167" y="-8.07558" width="47.9167" height="116.151" filterUnits="userSpaceOnUse" color-interpolation-filters="sRGB">
<feFlood flood-opacity="0" result="BackgroundImageFix" />
<feColorMatrix in="SourceAlpha" type="matrix" values="0 0 0 0 0 0 0 0 0 0 0 0 0 0 0 0 0 0 127 0" />
<feOffset />
<feGaussianBlur stdDeviation="4.16667" />
<feColorMatrix type="matrix" values="0 0 0 0 0 0 0 0 0 0 0 0 0 0 0 0 0 0 0.25 0" />
<feBlend mode="overlay" in2="BackgroundImageFix" result="effect1_dropShadow" />
<feBlend mode="normal" in="SourceGraphic" in2="effect1_dropShadow" result="shape" />
</filter>
<linearGradient id="paint0_linear" x1="49.9392" y1="0.257812" x2="49.9392" y2="99.7423" gradientUnits="userSpaceOnUse">
<stop stop-color="white" />
<stop offset="1" stop-color="white" stop-opacity="0" />
</linearGradient>
</defs>
</g>


<g transform="translate(120,190) scale(2)">
<path d="M20.953.004a.397.397 0 0 0-.18.017L3.225 5.585c-.175.055-.323.214-.402.398a.42.42 0 0 0-.06.22v5.726a.42.42 0 0 0 .06.22c.079.183.227.341.402.397l7.454 2.364-7.454 2.363c-.255.08-.463.374-.463.655v5.688c0 .282.208.444.463.363l17.55-5.565c.237-.075.426-.336.452-.6.003-.022.013-.04.013-.065V12.06c0-.281-.208-.575-.463-.656L13.4 9.065l7.375-2.339c.255-.08.462-.375.462-.656V.384c0-.211-.117-.355-.283-.38z" fill="#FF9800" />
</g>




<g transform="translate(50, 300) scale(1)">
<svg id="Layer_1" data-name="Layer 1" viewBox="0 0 27.17 25.93" width="50" height="50">
  <rect width="27.17" height="25.93" style="fill: #f6df19;" />
  <path d="M14.81,11.88v8.75c0,1.8-1.53,3.25-3.41,3.25h-.63c-1.42,0-2.73-.7-3.47-1.85l-.21-.33h0s2.13-1.25,2.13-1.25l.34.53c.29.45.8.72,1.35.72h.11c.68,0,1.23-.52,1.23-1.17v-8.65h2.57Z" style="fill: #010101;" />
  <path d="M23.93,17.93c-.59-.56-3.07-1.59-3.07-1.59-.72-.24-1.38-.67-1.41-1.34-.02-.54.43-1.1,1.3-1.1.75,0,1.39.45,1.54,1.04l2-1.22h0c-1.21-2.25-4.46-2.65-6.38-1h0c-1.31,1.07-1.2,3.3-.3,4.39,1.26,1.51,4.55,1.94,4.85,3.12.27,1.05-.82,1.46-1.69,1.5-1.24.04-2.29-.93-2.54-1.5l-2.04,1.18h0c1.77,3.23,6.58,2.95,8.09,1.22,0,0,2.06-2.41-.36-4.71Z" style="fill: #010101;" />
</svg>
</g>


<g transform="translate(115,300) scale(1)">
<svg id="Layer_1" data-name="Layer 1" viewBox="0 0 35.66 35.34" width="50" height="50">
  <path d="M26.35,7.59c.04-3.7.21-4.3-1.25-5.69-1.45-1.38-4.63-1.91-6.78-1.91h-1.19c-2.16,0-5.45.42-6.9,1.8-1.5,1.43-.91,2.12-1,6.15h8.63v1.21H7.59c-1.78,0-3.64,0-4.94,1.02C.97,11.51.08,14.09,0,16.43h0v1.94c0,2.46.72,5.47,2.42,6.98,1.56,1.39,2.81,1.01,5.64,1.06h0v-4.65c0-2.56,2.08-4.63,4.63-4.63h9.09c2.54,0,4.59-2.05,4.59-4.59l-.03-4.95ZM12.95,5.8c-.89.03-1.62-.7-1.59-1.59.03-.8.68-1.46,1.49-1.49.89-.03,1.62.7,1.59,1.59-.03.8-.68,1.46-1.49,1.49Z" style="fill: #3870a1;" />
  <path d="M9.3,27.74c-.04,3.7-.21,4.3,1.25,5.69,1.45,1.38,4.63,1.91,6.78,1.91h1.19c2.16,0,5.45-.42,6.9-1.8,1.5-1.43.91-2.12,1-6.15h-8.63v-1.21h10.27c1.78,0,3.64,0,4.94-1.02,1.68-1.33,2.58-3.92,2.65-6.25h0v-1.94c0-2.46-.72-5.47-2.42-6.98-1.56-1.39-2.81-1.01-5.64-1.06h0v4.65c0,2.56-2.08,4.63-4.63,4.63h-9.09c-2.54,0-4.59,2.05-4.59,4.59l.03,4.95ZM22.71,29.54c.89-.03,1.62.7,1.59,1.59-.03.8-.68,1.46-1.49,1.49-.89.03-1.62-.7-1.59-1.59.03-.8.68-1.46,1.49-1.49Z" style="fill: #ffd040;" />
</svg>
</g>


<g transform="translate(170,295) scale(1)">
<svg id="Layer_1" data-name="Layer 1" viewBox="0 0 35.02 45.74" width="60" height="60">
  <polygon points="31.83 42.12 17.51 45.74 3.19 42.12 0 9.09 35.02 9.09 31.83 42.12" style="fill: #e44f26;" />
  <polygon points="17.51 11.72 17.51 42.83 5.47 39.75 2.79 11.72 17.51 11.72" style="fill: #e44f26;" />
  <polygon points="31.72 11.72 29.01 39.97 17.51 42.83 17.51 11.72 31.72 11.72" style="fill: #f1672a;" />
  <polygon points="17.51 19.93 11.28 19.93 11.67 24.1 17.51 24.1 17.51 28.17 7.63 28.17 6.44 15.8 17.51 15.8 17.51 19.93" style="fill: #cfd0d0;" />
  <polygon points="17.51 34.73 17.51 38.96 8.42 36.63 7.82 30.21 12.25 30.24 12.57 33.52 17.51 34.73" style="fill: #cfd0d0;" />
  <polygon points="27.7 24.1 26.54 36.64 17.51 38.96 17.51 38.96 17.51 34.73 17.51 34.73 22.41 33.48 22.96 28.17 17.51 28.17 17.51 24.1 27.7 24.1" style="fill: #fff;" />
  <polygon points="28.57 15.8 28.15 19.93 17.51 19.93 17.51 15.8 28.57 15.8" style="fill: #fff;" />
  <polygon points="23.07 0 21.62 2.17 20.17 0 17.82 0 17.82 6.2 20.07 6.2 20.07 3.17 21.62 5.29 23.17 3.17 23.17 6.2 25.42 6.2 25.42 0 23.07 0" style="fill: #010101;" />
  <polygon points="7.45 0 7.45 2.04 5.42 2.04 5.42 0 3.17 0 3.17 6.2 5.42 6.2 5.42 4.13 7.45 4.13 7.45 6.2 9.7 6.2 9.7 0 7.45 0" style="fill: #010101;" />
  <polygon points="16.88 0 10.68 0 10.68 2.09 12.66 2.09 12.66 6.2 14.91 6.2 14.91 2.09 16.88 2.09 16.88 0" style="fill: #010101;" />
  <polygon points="31.92 4.11 28.75 4.11 28.75 0 26.5 0 26.5 6.2 28.75 6.2 31.92 6.2 31.92 4.11" style="fill: #010101;" />
</svg>
</g>


<g transform="translate(230,295) scale(1)">
<svg id="Layer_1" data-name="Layer 1" viewBox="0 0 32.55 44.23" width="60" height="60">
  <polygon points="29.58 40.69 16.27 44.23 2.97 40.69 0 8.45 32.55 8.45 29.58 40.69" style="fill: #1071b9;" />
  <polygon points="16.27 11.02 16.27 41.38 5.09 38.38 2.59 11.02 16.27 11.02" style="fill: #1071b9;" />
  <polygon points="29.48 11.02 26.96 38.59 16.27 41.38 16.27 11.02 29.48 11.02" style="fill: #29a8df;" />
  <polygon points="26.69 18.91 17.63 22.79 26.27 22.83 25.22 35.08 16.27 37.42 16.27 33.3 21.15 31.83 21.49 26.71 16.27 26.72 16.27 14.77 27.02 14.77 26.69 18.91" style="fill: #fff;" />
  <polygon points="16.27 14.77 16.27 26.72 6.34 26.75 6 22.73 15.94 18.49 5.54 18.49 5.17 14.77 16.27 14.77" style="fill: #cfd0d0;" />
  <polygon points="10.96 32.35 16.27 33.3 16.27 37.42 7.22 35.17 6.63 29.08 10.65 29.1 10.96 32.35" style="fill: #cfd0d0;" />
  <polygon points="12.48 1.78 12.48 0 6.5 0 6.5 5.95 12.48 5.95 12.48 4.47 8.31 4.47 8.31 1.78 12.48 1.78" style="fill: #010101;" />
  <polygon points="19.26 1.72 14.87 1.72 14.87 2.4 19.26 2.44 19.26 5.95 13.19 5.95 13.19 4.54 17.4 4.54 17.4 3.61 13.19 3.61 13.19 0 19.26 0 19.26 1.72" style="fill: #010101;" />
  <polygon points="26 1.72 21.6 1.72 21.61 2.4 26 2.44 26 5.95 19.92 5.95 19.92 4.54 24.13 4.54 24.13 3.61 19.92 3.61 19.92 0 26 0 26 1.72" style="fill: #010101;" />
</svg>

</g>


<g transform="translate(300,310) scale(1)" clip-path="url(#prefix__clip0)"><path fill="#38bdf8" fill-rule="evenodd" d="M27 0c-7.2 0-11.7 3.6-13.5 10.8 2.7-3.6 5.85-4.95 9.45-4.05 2.054.513 3.522 2.004 5.147 3.653C30.744 13.09 33.808 16.2 40.5 16.2c7.2 0 11.7-3.6 13.5-10.8-2.7 3.6-5.85 4.95-9.45 4.05-2.054-.513-3.522-2.004-5.147-3.653C36.756 3.11 33.692 0 27 0zM13.5 16.2C6.3 16.2 1.8 19.8 0 27c2.7-3.6 5.85-4.95 9.45-4.05 2.054.514 3.522 2.004 5.147 3.653C17.244 29.29 20.308 32.4 27 32.4c7.2 0 11.7-3.6 13.5-10.8-2.7 3.6-5.85 4.95-9.45 4.05-2.054-.513-3.522-2.004-5.147-3.653C23.256 19.31 20.192 16.2 13.5 16.2z" clip-rule="evenodd" /></g><defs><clipPath id="prefix__clip0"><path fill="#fff" d="M0 0h54v32.4H0z" /></clipPath></defs>


<g transform="translate(360, 300) scale(1.1)">
<path fill="#00549d" fill-rule="evenodd" d="M22.903,3.286c0.679-0.381,1.515-0.381,2.193,0 c3.355,1.883,13.451,7.551,16.807,9.434C42.582,13.1,43,13.804,43,14.566c0,3.766,0,15.101,0,18.867 c0,0.762-0.418,1.466-1.097,1.847c-3.355,1.883-13.451,7.551-16.807,9.434c-0.679,0.381-1.515,0.381-2.193,0 c-3.355-1.883-13.451-7.551-16.807-9.434C5.418,34.899,5,34.196,5,33.434c0-3.766,0-15.101,0-18.867 c0-0.762,0.418-1.466,1.097-1.847C9.451,10.837,19.549,5.169,22.903,3.286z" clip-rule="evenodd" /><path fill="#0086d4" fill-rule="evenodd" d="M5.304,34.404C5.038,34.048,5,33.71,5,33.255 c0-3.744,0-15.014,0-18.759c0-0.758,0.417-1.458,1.094-1.836c3.343-1.872,13.405-7.507,16.748-9.38 c0.677-0.379,1.594-0.371,2.271,0.008c3.343,1.872,13.371,7.459,16.714,9.331c0.27,0.152,0.476,0.335,0.66,0.576L5.304,34.404z" clip-rule="evenodd" /><path fill="#fff" fill-rule="evenodd" d="M24,10c7.727,0,14,6.273,14,14s-6.273,14-14,14 s-14-6.273-14-14S16.273,10,24,10z M24,17c3.863,0,7,3.136,7,7c0,3.863-3.137,7-7,7s-7-3.137-7-7C17,20.136,20.136,17,24,17z" clip-rule="evenodd" /><path fill="#0075c0" fill-rule="evenodd" d="M42.485,13.205c0.516,0.483,0.506,1.211,0.506,1.784 c0,3.795-0.032,14.589,0.009,18.384c0.004,0.396-0.127,0.813-0.323,1.127L23.593,24L42.485,13.205z" clip-rule="evenodd" /><path fill="#fff" fill-rule="evenodd" d="M31 21H33V27H31zM38 21H40V27H38z" clip-rule="evenodd" /><path fill="#fff" fill-rule="evenodd" d="M29 23H35V25H29zM36 23H42V25H36z" clip-rule="evenodd" /></g>


<rect fill="#3178c6" height="50" rx="6" width="50" x="430" y="300" />
<g transform="translate(427, 300) scale(0.4)">
<path clip-rule="evenodd" d="m74.2622 99.468v14.026c2.2724 1.168 4.9598 2.045 8.0625 2.629 3.1027.585 6.3728.877 9.8105.877 3.3503 0 6.533-.321 9.5478-.964 3.016-.643 5.659-1.702 7.932-3.178 2.272-1.476 4.071-3.404 5.397-5.786 1.325-2.381 1.988-5.325 1.988-8.8313 0-2.5421-.379-4.7701-1.136-6.6841-.758-1.9139-1.85-3.6159-3.278-5.1062-1.427-1.4902-3.139-2.827-5.134-4.0104-1.996-1.1834-4.246-2.3011-6.752-3.353-1.8352-.7597-3.4812-1.4975-4.9378-2.2134-1.4567-.7159-2.6948-1.4464-3.7144-2.1915-1.0197-.7452-1.8063-1.5341-2.3598-2.3669-.5535-.8327-.8303-1.7751-.8303-2.827 0-.9643.2476-1.8336.7429-2.6079s1.1945-1.4391 2.0976-1.9943c.9031-.5551 2.0101-.9861 3.3211-1.2929 1.311-.3069 2.7676-.4603 4.3699-.4603 1.1658 0 2.3958.0877 3.6928.263 1.296.1753 2.6.4456 3.911.8109 1.311.3652 2.585.8254 3.824 1.3806 1.238.5552 2.381 1.198 3.43 1.9285v-13.1051c-2.127-.8182-4.45-1.4245-6.97-1.819s-5.411-.5917-8.6744-.5917c-3.3211 0-6.4674.3579-9.439 1.0738-2.9715.7159-5.5862 1.8336-7.844 3.353-2.2578 1.5195-4.0422 3.4553-5.3531 5.8075-1.311 2.3522-1.9665 5.1646-1.9665 8.4373 0 4.1785 1.2017 7.7433 3.6052 10.6945 2.4035 2.9513 6.0523 5.4496 10.9466 7.495 1.9228.7889 3.7145 1.5633 5.375 2.323 1.6606.7597 3.0954 1.5486 4.3044 2.3668s2.1628 1.7094 2.8618 2.6736c.7.9643 1.049 2.06 1.049 3.2873 0 .9062-.218 1.7462-.655 2.5202s-1.1 1.446-1.9885 2.016c-.8886.57-1.9956 1.016-3.3212 1.337-1.3255.321-2.8768.482-4.6539.482-3.0299 0-6.0305-.533-9.0021-1.6-2.9715-1.066-5.7245-2.666-8.2591-4.799zm-23.5596-34.9136h18.2974v-11.5544h-51v11.5544h18.2079v51.4456h14.4947z" fill="#fff" fill-rule="evenodd" />
</g>



<g transform="translate(50, 405) scale(0.5)">
<svg width="98" height="96"><path fill-rule="evenodd" clip-rule="evenodd" d="M48.854 0C21.839 0 0 22 0 49.217c0 21.756 13.993 40.172 33.405 46.69 2.427.49 3.316-1.059 3.316-2.362 0-1.141-.08-5.052-.08-9.127-13.59 2.934-16.42-5.867-16.42-5.867-2.184-5.704-5.42-7.17-5.42-7.17-4.448-3.015.324-3.015.324-3.015 4.934.326 7.523 5.052 7.523 5.052 4.367 7.496 11.404 5.378 14.235 4.074.404-3.178 1.699-5.378 3.074-6.6-10.839-1.141-22.243-5.378-22.243-24.283 0-5.378 1.94-9.778 5.014-13.2-.485-1.222-2.184-6.275.486-13.038 0 0 4.125-1.304 13.426 5.052a46.97 46.97 0 0 1 12.214-1.63c4.125 0 8.33.571 12.213 1.63 9.302-6.356 13.427-5.052 13.427-5.052 2.67 6.763.97 11.816.485 13.038 3.155 3.422 5.015 7.822 5.015 13.2 0 18.905-11.404 23.06-22.324 24.283 1.78 1.548 3.316 4.481 3.316 9.126 0 6.6-.08 11.897-.08 13.526 0 1.304.89 2.853 3.316 2.364 19.412-6.52 33.405-24.935 33.405-46.691C97.707 22 75.788 0 48.854 0z" fill="#24292f" /></svg>
</g>

<g transform="translate(120, 415) scale(0.3)">
<svg width="292" height="92pt" viewBox="0 0 219 92"><defs><clipPath id="a"><path d="M159 .79h25V69h-25Zm0 0" /></clipPath><clipPath id="b"><path d="M183 9h35.371v60H183Zm0 0" /></clipPath><clipPath id="c"><path d="M0 .79h92V92H0Zm0 0" /></clipPath></defs><path style="stroke:none;fill-rule:nonzero;fill:#f03c2e;fill-opacity:1" d="M130.871 31.836c-4.785 0-8.351 2.352-8.351 8.008 0 4.261 2.347 7.222 8.093 7.222 4.871 0 8.18-2.867 8.18-7.398 0-5.133-2.961-7.832-7.922-7.832Zm-9.57 39.95c-1.133 1.39-2.262 2.87-2.262 4.612 0 3.48 4.434 4.524 10.527 4.524 5.051 0 11.926-.352 11.926-5.043 0-2.793-3.308-2.965-7.488-3.227Zm25.761-39.688c1.563 2.004 3.22 4.789 3.22 8.793 0 9.656-7.571 15.316-18.536 15.316-2.789 0-5.312-.348-6.879-.785l-2.87 4.613 8.526.52c15.059.96 23.934 1.398 23.934 12.968 0 10.008-8.789 15.665-23.934 15.665-15.75 0-21.757-4.004-21.757-10.88 0-3.917 1.742-6 4.789-8.878-2.875-1.211-3.828-3.387-3.828-5.739 0-1.914.953-3.656 2.523-5.312 1.566-1.652 3.305-3.305 5.395-5.219-4.262-2.09-7.485-6.617-7.485-13.058 0-10.008 6.613-16.88 19.93-16.88 3.742 0 6.004.344 8.008.872h16.972v7.394l-8.007.61" /><g clip-path="url(#a)"><path style="stroke:none;fill-rule:nonzero;fill:#f03c2e;fill-opacity:1" d="M170.379 16.281c-4.961 0-7.832-2.87-7.832-7.836 0-4.957 2.871-7.656 7.832-7.656 5.05 0 7.922 2.7 7.922 7.656 0 4.965-2.871 7.836-7.922 7.836Zm-11.227 52.305V61.71l4.438-.606c1.219-.175 1.394-.437 1.394-1.746V33.773c0-.953-.261-1.566-1.132-1.824l-4.7-1.656.957-7.047h18.016V59.36c0 1.399.086 1.57 1.395 1.746l4.437.606v6.875h-24.805" /></g><g clip-path="url(#b)"><path style="stroke:none;fill-rule:nonzero;fill:#f03c2e;fill-opacity:1" d="M218.371 65.21c-3.742 1.825-9.223 3.481-14.187 3.481-10.356 0-14.27-4.175-14.27-14.015V31.879c0-.524 0-.871-.7-.871h-6.093v-7.746c7.664-.871 10.707-4.703 11.664-14.188h8.27v12.36c0 .609 0 .87.695.87h12.27v8.704h-12.965v20.797c0 5.136 1.218 7.136 5.918 7.136 2.437 0 4.96-.609 7.047-1.39l2.351 7.66" /></g><g clip-path="url(#c)"><path style="stroke:none;fill-rule:nonzero;fill:#f03c2e;fill-opacity:1" d="M89.422 42.371 49.629 2.582a5.868 5.868 0 0 0-8.3 0l-8.263 8.262 10.48 10.484a6.965 6.965 0 0 1 7.173 1.668 6.98 6.98 0 0 1 1.656 7.215l10.102 10.105a6.963 6.963 0 0 1 7.214 1.657 6.976 6.976 0 0 1 0 9.875 6.98 6.98 0 0 1-9.879 0 6.987 6.987 0 0 1-1.519-7.594l-9.422-9.422v24.793a6.979 6.979 0 0 1 1.848 1.32 6.988 6.988 0 0 1 0 9.88c-2.73 2.726-7.153 2.726-9.875 0a6.98 6.98 0 0 1 0-9.88 6.893 6.893 0 0 1 2.285-1.523V34.398a6.893 6.893 0 0 1-2.285-1.523 6.988 6.988 0 0 1-1.508-7.637L29.004 14.902 1.719 42.187a5.868 5.868 0 0 0 0 8.301l39.793 39.793a5.868 5.868 0 0 0 8.3 0l39.61-39.605a5.873 5.873 0 0 0 0-8.305" /></g></svg>

</g>





<g transform="translate(150, 480)">
<svg id="Layer_1" version="1.1" viewBox="0 0 360 360" width="100" height="100">
  
  <defs>
    <style>
      .st0 {
        fill: #4dc8ed;
      }
    </style>
  </defs>
  <path class="st0" d="M200.6,180.4c0,9.97-8.08,18.05-18.05,18.05s-18.05-8.08-18.05-18.05,8.08-18.05,18.05-18.05,18.05,8.08,18.05,18.05Z" />
  <path class="st0" d="M182.55,139.37c-55.56,0-100.6,18.37-100.6,41.02s45.04,41.02,100.6,41.02,100.6-18.37,100.6-41.02-45.04-41.02-100.6-41.02ZM250.53,201.65c-18.02,7.35-42.16,11.39-67.98,11.39s-49.95-4.05-67.98-11.39c-15.19-6.19-24.25-14.14-24.25-21.26s9.07-15.06,24.25-21.25c18.02-7.35,42.16-11.39,67.98-11.39s49.95,4.05,67.98,11.39c15.19,6.19,24.25,14.14,24.25,21.25s-9.07,15.06-24.25,21.26Z" />
  <path class="st0" d="M147.02,159.89c-27.78,48.12-34.39,96.3-14.78,107.63,19.62,11.33,58.05-18.49,85.83-66.61,27.78-48.12,34.39-96.31,14.77-107.63-19.62-11.33-58.05,18.49-85.83,66.61ZM234.95,132.15c-2.65,19.28-11.21,42.21-24.12,64.57-12.91,22.36-28.48,41.24-43.86,53.17-12.96,10.05-24.37,13.93-30.53,10.38-6.17-3.56-8.51-15.38-6.28-31.63,2.65-19.28,11.21-42.21,24.12-64.57,12.91-22.35,28.48-41.24,43.86-53.17,12.96-10.06,24.37-13.94,30.54-10.38,6.16,3.56,8.51,15.38,6.28,31.63Z" />
  <path class="st0" d="M132.25,93.27c-19.62,11.33-13.01,59.52,14.78,107.63,27.78,48.12,66.21,77.94,85.83,66.61,19.62-11.33,13.01-59.52-14.78-107.63-27.78-48.12-66.21-77.94-85.83-66.61ZM136.43,100.52c6.16-3.56,17.58.32,30.54,10.38,15.37,11.93,30.95,30.81,43.86,53.17,12.91,22.36,21.47,45.29,24.12,64.57,2.23,16.25-.12,28.08-6.28,31.63-6.16,3.56-17.58-.32-30.54-10.38-15.37-11.93-30.95-30.82-43.86-53.17-12.91-22.35-21.47-45.28-24.12-64.57-2.23-16.25.12-28.07,6.28-31.63Z" />
</svg>
</g>




<g transform="translate(50, 480)">
<svg id="Layer_1" data-name="Layer 1" viewBox="0 0 382.51 234.29" width="100" height="100">
  <defs>
    <linearGradient id="linear-gradient" x1="171.45" y1="46.44" x2="96.1" y2="182.76" gradientUnits="userSpaceOnUse">
      <stop offset="0" stop-color="#41873f" />
      <stop offset=".33" stop-color="#408a3d" />
      <stop offset=".64" stop-color="#409536" />
      <stop offset=".93" stop-color="#3fa82c" />
      <stop offset="1" stop-color="#3fae2a" />
    </linearGradient>
    <linearGradient id="linear-gradient-2" x1="73" y1="103.82" x2="221.65" y2="98.01" href="#linear-gradient" />
    <linearGradient id="linear-gradient-3" x1="102.25" y1="98.02" x2="180.77" y2="104.34" gradientUnits="userSpaceOnUse">
      <stop offset="0" stop-color="#6cc04a" />
      <stop offset=".09" stop-color="#6cc04a" />
      <stop offset=".29" stop-color="#65b748" />
      <stop offset=".6" stop-color="#54a043" />
      <stop offset=".86" stop-color="#41873f" />
      <stop offset="1" stop-color="#41873f" />
    </linearGradient>
  </defs>
  
<path d="M188.63,234.29c-1.26,0-2.51-.33-3.61-.97l-11.49-6.8c-1.71-.96-.88-1.3-.31-1.5,2.29-.8,2.75-.98,5.2-2.36.25-.14.59-.09.85.06l8.83,5.24c.32.18.77.18,1.07,0l34.41-19.86c.32-.18.53-.55.53-.93v-39.71c0-.39-.21-.75-.54-.95l-34.4-19.85c-.32-.18-.74-.18-1.06,0l-34.39,19.85c-.33.19-.55.57-.55.94v39.71c0,.38.21.74.54.92l9.43,5.45c5.11,2.55,8.25-.46,8.25-3.48v-39.21c0-.56.44-.99,1-.99h4.36c.55,0,1,.44,1,.99v39.21c0,6.83-3.72,10.74-10.19,10.74-1.99,0-3.55,0-7.93-2.15l-9.02-5.2c-2.23-1.29-3.61-3.7-3.61-6.28v-39.71c0-2.58,1.38-4.99,3.61-6.27l34.41-19.89c2.18-1.23,5.07-1.23,7.23,0l34.41,19.89c2.23,1.29,3.61,3.69,3.61,6.27v39.71c0,2.58-1.39,4.98-3.61,6.28l-34.41,19.87c-1.1.64-2.35.97-3.62.97" style="fill: #679f65;" />
  <path d="M199.26,206.93c-15.06,0-18.21-6.91-18.21-12.71,0-.55.44-.99.99-.99h4.45c.5,0,.91.36.99.84.67,4.53,2.67,6.82,11.78,6.82,7.25,0,10.34-1.64,10.34-5.49,0-2.22-.87-3.86-12.14-4.97-9.42-.93-15.24-3.01-15.24-10.54,0-6.95,5.85-11.09,15.66-11.09,11.03,0,16.48,3.83,17.17,12.04.03.28-.07.55-.26.76-.19.2-.45.32-.73.32h-4.47c-.46,0-.87-.33-.97-.78-1.07-4.77-3.68-6.29-10.75-6.29-7.91,0-8.83,2.76-8.83,4.82,0,2.5,1.08,3.23,11.77,4.65,10.58,1.4,15.6,3.38,15.6,10.81s-6.25,11.79-17.16,11.79" style="fill: #679f65;" />
  <path d="M279.75,12.94L257.89.36c-1.47-.85-2.67-.15-2.67,1.54v59.75l-11.24-6.49c-1.48-.85-3.89-.85-5.36,0l-35.75,20.64c-1.47.85-2.68,2.94-2.68,4.64v41.28c0,1.7,1.21,3.79,2.68,4.64l35.75,20.64c1.47.85,3.89.85,5.36,0l35.75-20.64c1.47-.85,2.68-2.94,2.68-4.64V17.55c0-1.69-1.2-3.77-2.67-4.62ZM255.04,107.98c0,.57-.4,1.27-.9,1.55l-11.95,6.9c-.49.28-1.3.28-1.79,0l-11.95-6.9c-.49-.29-.9-.98-.9-1.55v-13.8c0-.57.4-1.27.9-1.55l11.95-6.9c.49-.29,1.3-.29,1.79,0l11.95,6.9c.49.29.9.98.9,1.55v13.8Z" style="fill: #010101;" />
  <path d="M79.54,75.52l-35.75-20.64c-1.48-.85-3.89-.85-5.36,0L2.68,75.52c-1.47.85-2.68,2.94-2.68,4.64v56.03c0,1.69,1.2,2.39,2.67,1.54l22.04-12.71c1.47-.85,2.67-2.92,2.67-4.62v-26.51c0-.57.4-1.27.89-1.55l11.95-6.9c.49-.28,1.3-.28,1.79,0l11.95,6.9c.49.28.9.98.9,1.55v26.51c0,1.69,1.2,3.77,2.67,4.62l22.03,12.71c1.47.84,2.67.15,2.67-1.54v-56.03c0-1.7-1.21-3.79-2.68-4.64Z" style="fill: #010101;" />
  <g>
    <path d="M382.46,79.86c-.02-.1-.04-.21-.06-.31h0s-.01-.04-.01-.07c-.05-.23-.12-.46-.21-.69,0-.02-.01-.04-.02-.05h0c-.06-.17-.13-.34-.22-.5h0c-.11-.23-.24-.46-.37-.67-.03-.05-.06-.1-.09-.14-.09-.13-.18-.26-.27-.38-.08-.1-.16-.2-.24-.29-.05-.06-.1-.11-.16-.17-.13-.13-.26-.26-.4-.37-.03-.03-.06-.05-.1-.08-.15-.12-.31-.24-.48-.33l-8.19-4.73-27.56-15.91c-1.47-.85-3.89-.85-5.36,0l-35.75,20.64c-1.47.85-2.68,2.94-2.68,4.64v41.28c0,1.7,1.21,3.79,2.68,4.64l10.95,6.33,24.77,14.32c1.47.85,3.87.84,5.33,0l22.02-12.73c1.47-.85,1.46-2.23,0-3.08l-37.49-21.66c-.49-.29-.9-.98-.9-1.55v-13.8c0-.57.4-1.27.9-1.55l11.95-6.9c.49-.29,1.3-.29,1.79,0l11.95,6.9c.49.29.89.98.89,1.55v10.63c0,1.69,1.2,2.39,2.67,1.54l11.47-6.61h0l10.57-6.09c1.47-.85,2.67-2.92,2.67-4.62v-8.59c0-.19-.02-.39-.05-.59Z" style="fill: #010101;" />
    <path d="M341.91,91.46c-.28-.16-.74-.16-1.01,0l-6.76,3.91c-.28.16-.51.56-.51.88v7.81c0,.32.23.72.51.88l6.76,3.9c.28.16.74.16,1.01,0l6.76-3.9c.28-.16.51-.56.51-.88v-7.81c0-.32-.23-.72-.51-.88l-6.76-3.91Z" style="fill: #679f65;" />
  </g>
  <g>
    <path d="M138.53,55.23l-35.75,20.64c-1.47.85-2.68,2.94-2.68,4.64v41.28c0,1.7,1.21,3.79,2.68,4.64l35.75,20.64c1.47.85,3.89.85,5.36,0l35.75-20.64c1.47-.85,2.68-2.94,2.68-4.64v-41.28c0-1.7-1.21-3.79-2.68-4.64l-35.75-20.64c-1.47-.85-3.89-.85-5.36,0Z" style="fill: url(#linear-gradient);" />
    <path d="M100.64,121.65c-.85,1.47-.34,3.36,1.13,4.21l37.78,21.81c1.47.85,3.36.34,4.21-1.13l38.03-65.87c.85-1.47.34-3.36-1.13-4.21l-37.78-21.81c-1.47-.85-3.36-.34-4.21,1.13l-38.03,65.87Z" style="fill: url(#linear-gradient-2);" />
    <path d="M181.78,121.65c.85,1.47.34,3.36-1.13,4.21l-37.78,21.81c-1.47.85-3.36.34-4.21-1.13l-38.03-65.87c-.85-1.47-.34-3.36,1.13-4.21l37.78-21.81c1.47-.85,3.36-.34,4.21,1.13l38.03,65.87Z" style="fill: url(#linear-gradient-3);" />
  </g>

</svg>
</g>



<g transform="translate(250,505) scale(2)">
<path d="M18.665 21.978C16.758 23.255 14.465 24 12 24 5.377 24 0 18.623 0 12S5.377 0 12 0s12 5.377 12 12c0 3.583-1.574 6.801-4.067 9.001L9.219 7.2H7.2v9.596h1.615V9.251l9.85 12.727Zm-3.332-8.533 1.6 2.061V7.2h-1.6v6.245Z" />
</g>



<g transform="translate(50,610) scale(2)">
<path d="M23.5594 14.7228a.5269.5269 0 0 0-.0563-.1191c-.139-.2632-.4768-.3418-1.0074-.2321-1.6533.3411-2.2935.1312-2.5256-.0191 1.342-2.0482 2.445-4.522 3.0411-6.8297.2714-1.0507.7982-3.5237.1222-4.7316a1.5641 1.5641 0 0 0-.1509-.235C21.6931.9086 19.8007.0248 17.5099.0005c-1.4947-.0158-2.7705.3461-3.1161.4794a9.449 9.449 0 0 0-.5159-.0816 8.044 8.044 0 0 0-1.3114-.1278c-1.1822-.0184-2.2038.2642-3.0498.8406-.8573-.3211-4.7888-1.645-7.2219.0788C.9359 2.1526.3086 3.8733.4302 6.3043c.0409.818.5069 3.334 1.2423 5.7436.4598 1.5065.9387 2.7019 1.4334 3.582.553.9942 1.1259 1.5933 1.7143 1.7895.4474.1491 1.1327.1441 1.8581-.7279.8012-.9635 1.5903-1.8258 1.9446-2.2069.4351.2355.9064.3625 1.39.3772a.0569.0569 0 0 0 .0004.0041 11.0312 11.0312 0 0 0-.2472.3054c-.3389.4302-.4094.5197-1.5002.7443-.3102.064-1.1344.2339-1.1464.8115-.0025.1224.0329.2309.0919.3268.2269.4231.9216.6097 1.015.6331 1.3345.3335 2.5044.092 3.3714-.6787-.017 2.231.0775 4.4174.3454 5.0874.2212.5529.7618 1.9045 2.4692 1.9043.2505 0 .5263-.0291.8296-.0941 1.7819-.3821 2.5557-1.1696 2.855-2.9059.1503-.8707.4016-2.8753.5388-4.1012.0169-.0703.0357-.1207.057-.1362.0007-.0005.0697-.0471.4272.0307a.3673.3673 0 0 0 .0443.0068l.2539.0223.0149.001c.8468.0384 1.9114-.1426 2.5312-.4308.6438-.2988 1.8057-1.0323 1.5951-1.6698zM2.371 11.8765c-.7435-2.4358-1.1779-4.8851-1.2123-5.5719-.1086-2.1714.4171-3.6829 1.5623-4.4927 1.8367-1.2986 4.8398-.5408 6.108-.13-.0032.0032-.0066.0061-.0098.0094-2.0238 2.044-1.9758 5.536-1.9708 5.7495-.0002.0823.0066.1989.0162.3593.0348.5873.0996 1.6804-.0735 2.9184-.1609 1.1504.1937 2.2764.9728 3.0892.0806.0841.1648.1631.2518.2374-.3468.3714-1.1004 1.1926-1.9025 2.1576-.5677.6825-.9597.5517-1.0886.5087-.3919-.1307-.813-.5871-1.2381-1.3223-.4796-.839-.9635-2.0317-1.4155-3.5126zm6.0072 5.0871c-.1711-.0428-.3271-.1132-.4322-.1772.0889-.0394.2374-.0902.4833-.1409 1.2833-.2641 1.4815-.4506 1.9143-1.0002.0992-.126.2116-.2687.3673-.4426a.3549.3549 0 0 0 .0737-.1298c.1708-.1513.2724-.1099.4369-.0417.156.0646.3078.26.3695.4752.0291.1016.0619.2945-.0452.4444-.9043 1.2658-2.2216 1.2494-3.1676 1.0128zm2.094-3.988-.0525.141c-.133.3566-.2567.6881-.3334 1.003-.6674-.0021-1.3168-.2872-1.8105-.8024-.6279-.6551-.9131-1.5664-.7825-2.5004.1828-1.3079.1153-2.4468.079-3.0586-.005-.0857-.0095-.1607-.0122-.2199.2957-.2621 1.6659-.9962 2.6429-.7724.4459.1022.7176.4057.8305.928.5846 2.7038.0774 3.8307-.3302 4.7363-.084.1866-.1633.3629-.2311.5454zm7.3637 4.5725c-.0169.1768-.0358.376-.0618.5959l-.146.4383a.3547.3547 0 0 0-.0182.1077c-.0059.4747-.054.6489-.115.8693-.0634.2292-.1353.4891-.1794 1.0575-.11 1.4143-.8782 2.2267-2.4172 2.5565-1.5155.3251-1.7843-.4968-2.0212-1.2217a6.5824 6.5824 0 0 0-.0769-.2266c-.2154-.5858-.1911-1.4119-.1574-2.5551.0165-.5612-.0249-1.9013-.3302-2.6462.0044-.2932.0106-.5909.019-.8918a.3529.3529 0 0 0-.0153-.1126 1.4927 1.4927 0 0 0-.0439-.208c-.1226-.4283-.4213-.7866-.7797-.9351-.1424-.059-.4038-.1672-.7178-.0869.067-.276.1831-.5875.309-.9249l.0529-.142c.0595-.16.134-.3257.213-.5012.4265-.9476 1.0106-2.2453.3766-5.1772-.2374-1.0981-1.0304-1.6343-2.2324-1.5098-.7207.0746-1.3799.3654-1.7088.5321a5.6716 5.6716 0 0 0-.1958.1041c.0918-1.1064.4386-3.1741 1.7357-4.4823a4.0306 4.0306 0 0 1 .3033-.276.3532.3532 0 0 0 .1447-.0644c.7524-.5706 1.6945-.8506 2.802-.8325.4091.0067.8017.0339 1.1742.081 1.939.3544 3.2439 1.4468 4.0359 2.3827.8143.9623 1.2552 1.9315 1.4312 2.4543-1.3232-.1346-2.2234.1268-2.6797.779-.9926 1.4189.543 4.1729 1.2811 5.4964.1353.2426.2522.4522.2889.5413.2403.5825.5515.9713.7787 1.2552.0696.087.1372.1714.1885.245-.4008.1155-1.1208.3825-1.0552 1.717-.0123.1563-.0423.4469-.0834.8148-.0461.2077-.0702.4603-.0994.7662zm.8905-1.6211c-.0405-.8316.2691-.9185.5967-1.0105a2.8566 2.8566 0 0 0 .135-.0406 1.202 1.202 0 0 0 .1342.103c.5703.3765 1.5823.4213 3.0068.1344-.2016.1769-.5189.3994-.9533.6011-.4098.1903-1.0957.333-1.7473.3636-.7197.0336-1.0859-.0807-1.1721-.151zm.5695-9.2712c-.0059.3508-.0542.6692-.1054 1.0017-.055.3576-.112.7274-.1264 1.1762-.0142.4368.0404.8909.0932 1.3301.1066.887.216 1.8003-.2075 2.7014a3.5272 3.5272 0 0 1-.1876-.3856c-.0527-.1276-.1669-.3326-.3251-.6162-.6156-1.1041-2.0574-3.6896-1.3193-4.7446.3795-.5427 1.3408-.5661 2.1781-.463zm.2284 7.0137a12.3762 12.3762 0 0 0-.0853-.1074l-.0355-.0444c.7262-1.1995.5842-2.3862.4578-3.4385-.0519-.4318-.1009-.8396-.0885-1.2226.0129-.4061.0666-.7543.1185-1.0911.0639-.415.1288-.8443.1109-1.3505.0134-.0531.0188-.1158.0118-.1902-.0457-.4855-.5999-1.938-1.7294-3.253-.6076-.7073-1.4896-1.4972-2.6889-2.0395.5251-.1066 1.2328-.2035 2.0244-.1859 2.0515.0456 3.6746.8135 4.8242 2.2824a.908.908 0 0 1 .0667.1002c.7231 1.3556-.2762 6.2751-2.9867 10.5405zm-8.8166-6.1162c-.025.1794-.3089.4225-.6211.4225a.5821.5821 0 0 1-.0809-.0056c-.1873-.026-.3765-.144-.5059-.3156-.0458-.0605-.1203-.178-.1055-.2844.0055-.0401.0261-.0985.0925-.1488.1182-.0894.3518-.1226.6096-.0867.3163.0441.6426.1938.6113.4186zm7.9305-.4114c.0111.0792-.049.201-.1531.3102-.0683.0717-.212.1961-.4079.2232a.5456.5456 0 0 1-.075.0052c-.2935 0-.5414-.2344-.5607-.3717-.024-.1765.2641-.3106.5611-.352.297-.0414.6111.0088.6356.1851z" />
</g>
<g transform="translate(120,600) scale(2.5)">
<path d="M16.405 5.501c-.115 0-.193.014-.274.033v.013h.014c.054.104.146.18.214.273.054.107.1.214.154.32l.014-.015c.094-.066.14-.172.14-.333-.04-.047-.046-.094-.08-.14-.04-.067-.126-.1-.18-.153zM5.77 18.695h-.927a50.854 50.854 0 00-.27-4.41h-.008l-1.41 4.41H2.45l-1.4-4.41h-.01a72.892 72.892 0 00-.195 4.41H0c.055-1.966.192-3.81.41-5.53h1.15l1.335 4.064h.008l1.347-4.064h1.095c.242 2.015.384 3.86.428 5.53zm4.017-4.08c-.378 2.045-.876 3.533-1.492 4.46-.482.716-1.01 1.073-1.583 1.073-.153 0-.34-.046-.566-.138v-.494c.11.017.24.026.386.026.268 0 .483-.075.647-.222.197-.18.295-.382.295-.605 0-.155-.077-.47-.23-.944L6.23 14.615h.91l.727 2.36c.164.536.233.91.205 1.123.4-1.064.678-2.227.835-3.483zm12.325 4.08h-2.63v-5.53h.885v4.85h1.745zm-3.32.135l-1.016-.5c.09-.076.177-.158.255-.25.433-.506.648-1.258.648-2.253 0-1.83-.718-2.746-2.155-2.746-.704 0-1.254.232-1.65.697-.43.508-.646 1.256-.646 2.245 0 .972.19 1.686.574 2.14.35.41.877.615 1.583.615.264 0 .506-.033.725-.098l1.325.772.36-.622zM15.5 17.588c-.225-.36-.337-.94-.337-1.736 0-1.393.424-2.09 1.27-2.09.443 0 .77.167.977.5.224.362.336.936.336 1.723 0 1.404-.424 2.108-1.27 2.108-.445 0-.77-.167-.978-.5zm-1.658-.425c0 .47-.172.856-.516 1.156-.344.3-.803.45-1.384.45-.543 0-1.064-.172-1.573-.515l.237-.476c.438.22.833.328 1.19.328.332 0 .593-.073.783-.22a.754.754 0 00.3-.615c0-.33-.23-.61-.648-.845-.388-.213-1.163-.657-1.163-.657-.422-.307-.632-.636-.632-1.177 0-.45.157-.81.47-1.085.315-.278.72-.415 1.22-.415.512 0 .98.136 1.4.41l-.213.476a2.726 2.726 0 00-1.064-.23c-.283 0-.502.068-.654.206a.685.685 0 00-.248.524c0 .328.234.61.666.85.393.215 1.187.67 1.187.67.433.305.648.63.648 1.168zm9.382-5.852c-.535-.014-.95.04-1.297.188-.1.04-.26.04-.274.167.055.053.063.14.11.214.08.134.218.313.346.407.14.11.28.216.427.31.26.16.555.255.81.416.145.094.293.213.44.313.073.05.12.14.214.172v-.02c-.046-.06-.06-.147-.105-.214-.067-.067-.134-.127-.2-.193a3.223 3.223 0 00-.695-.675c-.214-.146-.682-.35-.77-.595l-.013-.014c.146-.013.32-.066.46-.106.227-.06.435-.047.67-.106.106-.027.213-.06.32-.094v-.06c-.12-.12-.21-.283-.334-.395a8.867 8.867 0 00-1.104-.823c-.21-.134-.476-.22-.697-.334-.08-.04-.214-.06-.26-.127-.12-.146-.19-.34-.275-.514a17.69 17.69 0 01-.547-1.163c-.12-.262-.193-.523-.34-.763-.69-1.137-1.437-1.826-2.586-2.5-.247-.14-.543-.2-.856-.274-.167-.008-.334-.02-.5-.027-.11-.047-.216-.174-.31-.235-.38-.24-1.364-.76-1.644-.072-.18.434.267.862.422 1.082.115.153.26.328.34.5.047.116.06.235.107.356.106.294.207.622.347.897.073.14.153.287.247.413.054.073.146.107.167.227-.094.136-.1.334-.154.5-.24.757-.146 1.693.194 2.25.107.166.362.534.703.393.3-.12.234-.5.32-.835.02-.08.007-.133.048-.187v.015c.094.188.188.367.274.555.206.328.566.668.867.895.16.12.287.328.487.402v-.02h-.015c-.043-.058-.1-.086-.154-.133a3.445 3.445 0 01-.35-.4 8.76 8.76 0 01-.747-1.218c-.11-.21-.202-.436-.29-.643-.04-.08-.04-.2-.107-.24-.1.146-.247.273-.32.453-.127.288-.14.642-.188 1.01-.027.007-.014 0-.027.014-.214-.052-.287-.274-.367-.46-.2-.475-.233-1.238-.06-1.785.047-.14.247-.582.167-.716-.042-.127-.174-.2-.247-.303a2.478 2.478 0 01-.24-.427c-.16-.374-.24-.788-.414-1.162-.08-.173-.22-.354-.334-.513-.127-.18-.267-.307-.368-.52-.033-.073-.08-.194-.027-.274.014-.054.042-.075.094-.09.088-.072.335.022.422.062.247.1.455.194.662.334.094.066.195.193.315.226h.14c.214.047.455.014.655.073.355.114.675.28.962.46a5.953 5.953 0 012.085 2.286c.08.154.115.295.188.455.14.33.313.663.455.982.14.315.275.636.476.897.1.14.502.213.682.286.133.06.34.115.46.188.23.14.454.3.67.454.11.076.443.243.463.378z" />
</g>

<g transform="translate(200,610) scale(0.15)">
<path d="M82.3229 28.6444C71.5367 15.8469 62.2485 2.84945 60.351 0.149971C60.1512 -0.0499903 59.8515 -0.0499903 59.6518 0.149971C57.7542 2.84945 48.4661 15.8469 37.6798 28.6444C-54.9019 146.721 52.2613 226.406 52.2613 226.406L53.1601 227.006C53.959 239.303 55.9565 257 55.9565 257H59.9514H63.9463C63.9463 257 65.9438 239.403 66.7428 227.006L67.6416 226.306C67.7414 226.406 174.905 146.721 82.3229 28.6444ZM59.9514 224.706C59.9514 224.706 55.1576 220.607 53.8592 218.507V218.308L59.6518 89.7325C59.6518 89.3326 60.2511 89.3326 60.2511 89.7325L66.0436 218.308V218.507C64.7453 220.607 59.9514 224.706 59.9514 224.706Z" fill="#00684A" />
<path d="M260.501 197.588L215.845 89.2991L215.745 89H181.001V96.279H186.608C188.31 96.279 189.912 96.9771 191.114 98.1736C192.315 99.3702 192.916 100.966 192.916 102.661L191.915 211.647C191.915 215.037 189.112 217.829 185.707 217.929L180 218.029V225.208H213.843V218.029L210.338 217.929C206.934 217.829 204.13 215.037 204.13 211.647V108.943L252.792 225.208C253.492 226.903 255.094 228 256.897 228C258.699 228 260.301 226.903 261.002 225.208L308.562 111.535L309.263 211.647C309.263 215.137 306.459 217.929 302.955 218.029H299.35V225.208H339V218.029H333.593C330.189 218.029 327.385 215.137 327.285 211.747L326.985 102.76C326.985 99.2704 329.788 96.4785 333.193 96.3788L339 96.279V89H305.157L260.501 197.588Z" fill="#00684A" />
<path d="M571.869 216.136C570.764 215.04 570.162 213.546 570.162 211.754V158.369C570.162 148.21 567.151 140.242 561.127 134.565C555.205 128.888 546.973 126 536.734 126C522.378 126 511.035 131.777 503.104 143.131C503.004 143.33 502.703 143.43 502.402 143.43C502.1 143.43 501.9 143.23 501.9 142.932L498.185 128.689H491.961L476 137.753V142.732H480.116C482.023 142.732 483.629 143.23 484.734 144.226C485.838 145.222 486.44 146.716 486.44 148.808V211.654C486.44 213.447 485.838 214.941 484.734 216.036C483.629 217.132 482.124 217.729 480.317 217.729H476.301V225H513.042V217.729H509.027C507.22 217.729 505.714 217.132 504.61 216.036C503.506 214.941 502.903 213.447 502.903 211.654V170.022C502.903 164.743 504.108 159.465 506.317 154.286C508.625 149.206 512.038 144.924 516.556 141.637C521.073 138.35 526.494 136.757 532.718 136.757C539.745 136.757 545.066 138.948 548.378 143.33C551.691 147.712 553.398 153.389 553.398 160.162V211.554C553.398 213.347 552.795 214.841 551.691 215.937C550.587 217.032 549.081 217.63 547.274 217.63H543.259V224.9H580V217.63H575.985C574.479 217.829 573.073 217.231 571.869 216.136Z" fill="#00684A" />
<path d="M907.546 97.212C897.39 91.8041 886.039 89 873.792 89H826V96.3107H830.68C832.472 96.3107 834.065 97.0117 835.658 98.6141C837.152 100.116 837.948 101.819 837.948 103.621V211.379C837.948 213.181 837.152 214.884 835.658 216.386C834.165 217.888 832.472 218.689 830.68 218.689H826V226H873.792C886.039 226 897.39 223.196 907.546 217.788C917.701 212.38 925.966 204.368 931.94 194.154C937.914 183.939 941 171.621 941 157.6C941 143.58 937.914 131.362 931.94 121.047C925.866 110.632 917.701 102.62 907.546 97.212ZM921.784 157.4C921.784 170.219 919.494 181.034 915.013 189.747C910.533 198.46 904.558 204.969 897.19 209.175C889.823 213.382 881.658 215.485 872.896 215.485H863.238C861.446 215.485 859.853 214.784 858.26 213.181C856.766 211.679 855.97 209.977 855.97 208.174V106.526C855.97 104.723 856.667 103.121 858.26 101.518C859.753 100.016 861.446 99.2149 863.238 99.2149H872.896C881.658 99.2149 889.823 101.318 897.19 105.524C904.558 109.73 910.533 116.24 915.013 124.953C919.494 133.665 921.784 144.581 921.784 157.4Z" fill="#00684A" />
<path d="M1053.97 164.711C1049.55 159.603 1041.02 155.297 1030.99 152.993C1044.84 146.083 1051.96 136.369 1051.96 123.851C1051.96 117.041 1050.16 110.932 1046.54 105.724C1042.93 100.517 1037.81 96.3106 1031.29 93.4064C1024.76 90.5022 1017.13 89 1008.5 89H954.402V96.3107H958.718C960.524 96.3107 962.13 97.0117 963.736 98.614C965.242 100.116 966.045 101.819 966.045 103.621V211.379C966.045 213.181 965.242 214.884 963.736 216.386C962.231 217.888 960.524 218.689 958.718 218.689H954V226H1012.72C1021.65 226 1029.98 224.498 1037.51 221.493C1045.04 218.489 1051.06 214.083 1055.38 208.274C1059.79 202.466 1062 195.355 1062 187.143C1061.9 178.33 1059.29 170.819 1053.97 164.711ZM986.621 213.281C985.115 211.779 984.312 210.077 984.312 208.274V159.904H1012.22C1022.05 159.904 1029.58 162.407 1034.8 167.414C1040.02 172.422 1042.63 178.931 1042.63 186.943C1042.63 191.75 1041.42 196.457 1039.22 200.763C1036.91 205.17 1033.49 208.675 1028.88 211.379C1024.36 214.083 1018.74 215.485 1012.22 215.485H991.639C989.833 215.585 988.227 214.784 986.621 213.281ZM984.413 149.588V106.626C984.413 104.823 985.115 103.221 986.721 101.618C988.227 100.116 989.933 99.315 991.74 99.315H1004.99C1014.52 99.315 1021.55 101.719 1025.97 106.325C1030.38 111.032 1032.59 117.041 1032.59 124.452C1032.59 132.063 1030.48 138.172 1026.37 142.779C1022.25 147.285 1016.03 149.588 1007.8 149.588H984.413Z" fill="#00684A" />
<path d="M431.999 132.387C424.329 128.196 415.763 126 406.5 126C397.237 126 388.571 128.096 381.001 132.387C373.331 136.579 367.255 142.667 362.773 150.352C358.291 158.037 356 167.02 356 177C356 186.98 358.291 195.963 362.773 203.648C367.255 211.333 373.331 217.421 381.001 221.613C388.671 225.804 397.237 228 406.5 228C415.763 228 424.429 225.904 431.999 221.613C439.669 217.421 445.745 211.333 450.227 203.648C454.709 195.963 457 186.98 457 177C457 167.02 454.709 158.037 450.227 150.352C445.745 142.667 439.669 136.679 431.999 132.387ZM439.37 177C439.37 189.276 436.382 199.256 430.405 206.442C424.529 213.628 416.461 217.321 406.5 217.321C396.54 217.321 388.471 213.628 382.595 206.442C376.618 199.256 373.63 189.276 373.63 177C373.63 164.724 376.618 154.744 382.595 147.558C388.471 140.372 396.54 136.679 406.5 136.679C416.461 136.679 424.529 140.372 430.405 147.558C436.382 154.843 439.37 164.724 439.37 177Z" fill="#00684A" />
<path d="M784.999 132.387C777.329 128.196 768.763 126 759.5 126C750.237 126 741.571 128.096 734.001 132.387C726.331 136.579 720.255 142.667 715.773 150.352C711.291 158.037 709 167.02 709 177C709 186.98 711.291 195.963 715.773 203.648C720.255 211.333 726.331 217.421 734.001 221.613C741.671 225.804 750.237 228 759.5 228C768.763 228 777.429 225.904 784.999 221.613C792.669 217.421 798.745 211.333 803.227 203.648C807.709 195.963 810 186.98 810 177C810 167.02 807.709 158.037 803.227 150.352C798.745 142.667 792.569 136.679 784.999 132.387ZM792.37 177C792.37 189.276 789.381 199.256 783.405 206.442C777.528 213.628 769.46 217.321 759.5 217.321C749.539 217.321 741.471 213.628 735.595 206.442C729.618 199.256 726.63 189.276 726.63 177C726.63 164.624 729.618 154.744 735.595 147.558C741.471 140.372 749.539 136.679 759.5 136.679C769.46 136.679 777.528 140.372 783.405 147.558C789.282 154.843 792.37 164.724 792.37 177Z" fill="#00684A" />
<path d="M642.64 126C634.614 126 627.292 127.704 620.671 131.113C614.05 134.522 608.834 139.135 605.122 145.05C601.411 150.865 599.505 157.383 599.505 164.301C599.505 170.517 600.909 176.232 603.818 181.346C606.627 186.259 610.439 190.369 615.254 193.778L600.909 213.23C599.103 215.636 598.903 218.844 600.207 221.451C601.611 224.158 604.219 225.763 607.229 225.763H611.342C607.329 228.47 604.119 231.678 601.912 235.488C599.304 239.8 598 244.311 598 248.923C598 257.546 601.812 264.665 609.335 269.979C616.759 275.293 627.191 278 640.332 278C649.461 278 658.188 276.496 666.113 273.588C674.138 270.681 680.658 266.369 685.473 260.755C690.389 255.14 692.897 248.322 692.897 240.501C692.897 232.28 689.887 226.464 682.865 220.85C676.847 216.137 667.417 213.631 655.68 213.631H615.555C615.455 213.631 615.354 213.53 615.354 213.53C615.354 213.53 615.254 213.33 615.354 213.23L625.787 199.193C628.596 200.496 631.204 201.298 633.511 201.799C635.918 202.301 638.627 202.501 641.636 202.501C650.063 202.501 657.687 200.797 664.307 197.388C670.928 193.979 676.245 189.367 680.057 183.451C683.868 177.636 685.774 171.119 685.774 164.201C685.774 156.781 682.163 143.245 672.332 136.327C672.332 136.227 672.433 136.227 672.433 136.227L694 138.633V128.707H659.492C654.075 126.902 648.458 126 642.64 126ZM654.677 188.665C650.865 190.67 646.752 191.773 642.64 191.773C635.919 191.773 630 189.367 624.984 184.654C619.969 179.942 617.461 173.024 617.461 164.201C617.461 155.377 619.969 148.459 624.984 143.747C630 139.034 635.919 136.628 642.64 136.628C646.853 136.628 650.865 137.631 654.677 139.736C658.489 141.741 661.599 144.85 664.107 148.96C666.514 153.071 667.818 158.185 667.818 164.201C667.818 170.317 666.614 175.43 664.107 179.441C661.699 183.551 658.489 186.66 654.677 188.665ZM627.492 225.662H654.677C662.201 225.662 667.016 227.166 670.226 230.375C673.436 233.583 675.041 237.894 675.041 242.908C675.041 250.227 672.132 256.243 666.314 260.755C660.495 265.267 652.671 267.573 643.041 267.573C634.614 267.573 627.592 265.668 622.476 262.058C617.36 258.449 614.752 252.934 614.752 245.916C614.752 241.504 615.956 237.393 618.364 233.784C620.771 230.174 623.68 227.567 627.492 225.662Z" fill="#00684A" />
<path d="M1082.35 224.327C1080.37 223.244 1078.88 221.669 1077.69 219.799C1076.6 217.831 1076 215.764 1076 213.5C1076 211.236 1076.6 209.071 1077.69 207.201C1078.78 205.232 1080.37 203.756 1082.35 202.673C1084.34 201.591 1086.52 201 1089 201C1091.48 201 1093.66 201.591 1095.65 202.673C1097.63 203.756 1099.12 205.331 1100.31 207.201C1101.4 209.169 1102 211.236 1102 213.5C1102 215.764 1101.4 217.929 1100.31 219.799C1099.22 221.768 1097.63 223.244 1095.65 224.327C1093.66 225.409 1091.48 226 1089 226C1086.62 226 1084.34 225.409 1082.35 224.327ZM1094.56 222.85C1096.24 221.965 1097.44 220.587 1098.43 219.012C1099.32 217.339 1099.82 215.468 1099.82 213.402C1099.82 211.335 1099.32 209.465 1098.43 207.791C1097.53 206.118 1096.24 204.839 1094.56 203.953C1092.87 203.067 1091.08 202.575 1089 202.575C1086.92 202.575 1085.13 203.067 1083.44 203.953C1081.76 204.839 1080.56 206.217 1079.57 207.791C1078.68 209.465 1078.18 211.335 1078.18 213.402C1078.18 215.468 1078.68 217.339 1079.57 219.012C1080.47 220.685 1081.76 221.965 1083.44 222.85C1085.13 223.736 1086.92 224.228 1089 224.228C1091.08 224.228 1092.97 223.736 1094.56 222.85ZM1083.64 219.406V218.52L1083.84 218.421H1084.44C1084.63 218.421 1084.83 218.323 1084.93 218.224C1085.13 218.028 1085.13 217.929 1085.13 217.732V208.579C1085.13 208.382 1085.03 208.185 1084.93 208.087C1084.73 207.89 1084.63 207.89 1084.44 207.89H1083.84L1083.64 207.791V206.906L1083.84 206.807H1089C1090.49 206.807 1091.58 207.102 1092.47 207.791C1093.37 208.48 1093.76 209.366 1093.76 210.547C1093.76 211.433 1093.47 212.319 1092.77 212.909C1092.08 213.598 1091.28 213.992 1090.29 214.091L1091.48 214.484L1093.76 218.126C1093.96 218.421 1094.16 218.52 1094.46 218.52H1095.05L1095.15 218.618V219.504L1095.05 219.602H1091.98L1091.78 219.504L1088.6 214.189H1087.81V217.732C1087.81 217.929 1087.91 218.126 1088.01 218.224C1088.21 218.421 1088.31 218.421 1088.5 218.421H1089.1L1089.3 218.52V219.406L1089.1 219.504H1083.84L1083.64 219.406ZM1088.7 213.008C1089.5 213.008 1090.19 212.811 1090.59 212.319C1090.98 211.925 1091.28 211.236 1091.28 210.449C1091.28 209.661 1091.08 209.071 1090.69 208.579C1090.29 208.087 1089.69 207.89 1089 207.89H1088.6C1088.4 207.89 1088.21 207.988 1088.11 208.087C1087.91 208.283 1087.91 208.382 1087.91 208.579V213.008H1088.7Z" fill="#00684A" />
</g>



<g transform="translate(50,700) scale(2)">
<svg id="Layer_1" data-name="Layer 1" viewBox="0 0 22.92 24.1" width="25" height="30">
  <path d="M12.02,0s3.1,0,3.77,2.72c.15.62.17.96.18,2.16,0,1.2.09,1.89.56,2.65.47.76,2.21,2.75,2.7,3.42.5.68,2.59,3.25,1.16,5.49,0,0,.57.25.69,1.04.12.78.18,1.01.87,1.6.7.59,1.05.71.95,1.28-.1.56-1.09.93-2.01,1.56s-1.9,1.35-2.44,1.67c-.54.32-1.36.71-2.5.37-1.14-.34-1.23-1.71-1.23-1.71,0,0-1.78.44-2.97.48s-2.7-.27-2.7-.27c0,0-.28,1.33-1.94,1.54-1.08.14-2-.71-3.73-1.14-.88-.22-2.92-.48-3.24-1.01-.31-.53-.02-1.31.04-1.67s0-.97-.09-1.41c-.09-.44-.03-.74.47-.88s1.69-.05,2.16-.59c.47-.54.62-1.13,1.24-1.41,0,0-.48-1.74,1.63-4.63.96-1.31,2.33-2.95,2.55-4.58.13-.96-.06-1.78-.05-2.65.01-.87.07-2.43,1.52-3.41C10.67-.09,12.02,0,12.02,0Z" style="fill: #2d2e2d;" />
  <path d="M.55,18.66c-.01-.15.08-.28.23-.33.15-.05.41-.11.87-.16,1.03-.1,1.52-.45,1.76-.85.24-.39.49-1.14,1.16-1.07.68.07,1.06.95,1.4,1.53.34.58,1.23,2.13,1.75,2.84s1.05,1.27.68,2.09c-.37.82-1.35.99-1.95.81-.61-.19-1.82-.88-3.36-1.19-1.54-.31-2.75-.3-2.6-1.12.15-.82.22-1.12.2-1.7-.01-.41-.12-.66-.14-.86Z" style="fill: #ffc91b;" />
  <path d="M16.88,16.38s-.16,1.08.83,1.44c1.2.44,2.47-.91,2.47-.91,0,0,.36.14.45.86.09.73.32,1.01.68,1.37.36.36,1.09.73,1.07,1.05-.02.31-.29.43-.91.82-.62.39-1.86,1.29-2.72,1.87-.87.58-1.93,1.19-2.88.55s-.54-1.65-.39-2c.15-.35.5-1.03.53-2.14.03-1.11-.16-2.91.89-2.91Z" style="fill: #ffc91b;" />
  <path d="M9.05,7.27s-.13,1.24-.91,2.61c-.78,1.37-1.56,2.23-2.02,4.02-.46,1.79.21,2.66,1.09,3.33.88.67,1.85,1.36,1.84,1.87-.01.51-.33.82-.74.89,0,0,1.17,1.02,2.81.96,1.64-.07,3.51-1.02,4.38-2.55,0,0,.08-1.42.34-1.87.31-.53.95-.59.95-.59,0,0,.43-2.23-.58-4.04-1.01-1.8-2.29-3.96-2.4-4.58,0,0-.32.08-1.18.63-.73.47-1.43.7-2.06.44-.74-.3-.88-.92-1.53-1.13Z" style="fill: #fdfcfa;" />
  <path d="M11.1,5.29s.43-.03,1.3.33,1.58.62,1.59.93c0,.31-.1.44-.4.62-.31.18-.7.42-1.24.71-.54.29-1.04.45-1.55.35-.51-.09-1.03-.73-.89-.7.13.03.64.3,1.5.13s2.05-.84,2.06-.99-.23-.03-.45.09c-.22.12-1.2.66-2,.68-.8.02-1.37-.21-1.79-.5-.42-.29-.56-.43-.25-.68.31-.26,1.27-1,2.11-.99Z" style="fill: #ffc91b;" />
  <path d="M9.44,5.67l-.32.22s-.03,0-.04,0c-.13-.18-.88-1.32-.09-2.24.3-.35,1.01-.36,1.36.18.24.37.3.7.27,1.28,0,.01-.01.02-.02.03-.05,0-.18.02-.26.04-.02,0-.03,0-.04-.02,0-.17-.06-.9-.57-.93-.57-.04-.65.58-.62.76.04.33.23.54.35.66.01.01,0,.03,0,.04Z" style="fill: #fffffa;" />
  <path d="M12.18,5.28s.03,0,.03-.02c0-.12,0-.6.16-.84.18-.27.58-.31.84-.12.24.18.39.79-.07,1.37,0,.01,0,.03.01.03.1.04.43.15.58.23.01,0,.02,0,.03,0,.11-.12.83-.92.31-2.02-.54-1.14-2.14-.75-2.32.41,0,0-.05.27,0,.81,0,0,0,.01.01.02.04.02.19.1.41.13Z" style="fill: #fdfbf9;" />
  <path d="M16.54,10.48s-.03,0-.02.02c.25.28,1.22,1.49,1.38,2.89.12,1.07-.19,1.5-.32,1.71-.14.21-.2.3-.12.29.08,0,.22-.1.41-.18.19-.08.53-.31.52-1.44,0-1.1-.94-2.74-1.86-3.29Z" style="fill: #fbf8f8;" />
  <path d="M13.25,4.93c-.01.11-.06.2-.11.19-.05,0-.08-.1-.07-.21s.06-.2.11-.19c.05,0,.08.1.07.21Z" style="fill: #fdfcfa;" />
  <path d="M10.01,4.75c.03.11.02.2-.03.22-.05.01-.12-.06-.15-.17-.03-.11-.02-.2.03-.22s.12.06.15.17Z" style="fill: #fdfcfa;" />
</svg>
</g>

<g transform="translate(120,695) scale(3.5)">
<path d="M0 14.727h.941v-2.453c0-.484.318-.835.771-.835.439 0 .71.276.71.722v2.566h.915V12.25c0-.48.31-.812.764-.812.46 0 .718.28.718.77v2.518h.94v-2.748c0-.801-.517-1.334-1.307-1.334-.578 0-1.054.31-1.247.805h-.023c-.147-.514-.552-.805-1.118-.805-.545 0-.968.306-1.142.771H.903v-.695H0v4.006zm7.82-.646c-.408 0-.68-.208-.68-.537 0-.318.26-.522.714-.552l.926-.057v.307c0 .483-.427.839-.96.839zm-.284.71c.514 0 1.017-.268 1.248-.703h.018v.639h.908v-2.76c0-.804-.647-1.33-1.64-1.33-1.021 0-1.66.537-1.701 1.285h.873c.06-.332.344-.548.79-.548.464 0 .748.242.748.662v.287l-1.058.06c-.976.061-1.524.488-1.524 1.199 0 .721.564 1.209 1.338 1.209zm6.305-2.642c-.065-.843-.719-1.512-1.777-1.512-1.164 0-1.92.805-1.92 2.087 0 1.3.756 2.082 1.928 2.082 1.005 0 1.697-.59 1.772-1.485h-.888c-.087.453-.397.725-.873.725-.597 0-.982-.483-.982-1.322 0-.824.381-1.323.975-1.323.502 0 .8.321.876.748h.889zm2.906-2.967c-1.591 0-2.589 1.085-2.589 2.82 0 1.735.998 2.816 2.59 2.816 1.586 0 2.584-1.081 2.584-2.816 0-1.735-.997-2.82-2.585-2.82zm0 .832c.971 0 1.591.77 1.591 1.988 0 1.213-.62 1.984-1.59 1.984-.976 0-1.592-.77-1.592-1.984 0-1.217.616-1.988 1.591-1.988zm2.982 3.178c.042 1.006.866 1.626 2.12 1.626 1.32 0 2.151-.65 2.151-1.686 0-.813-.469-1.27-1.576-1.523l-.627-.144c-.67-.158-.945-.37-.945-.733 0-.453.415-.756 1.032-.756.623 0 1.05.306 1.096.817h.93c-.023-.96-.817-1.61-2.019-1.61-1.187 0-2.03.653-2.03 1.62 0 .78.477 1.263 1.482 1.494l.707.166c.688.163.967.39.967.782 0 .454-.457.779-1.115.779-.665 0-1.167-.329-1.228-.832h-.945z" />
</g>

</svg>