<?xml version="1.0" encoding="UTF-8"?>
<svg xmlns="http://www.w3.org/2000/svg" font-family="ConsolasFallback,Consolas,monospace" width="750px" height="900px" font-size="16px">    

  <style>
    .ascii  { fill: #363534 ; }
    .key    { fill: #EA664D; }
    .value  { fill: #007096; }
    .cc   { fill: #b5b3afff; }
    .addColor {fill: #1a7f37;}
    .delColor {fill: #cf222e;}
    text, tspan { white-space: pre; }
  </style>

  <!-- Background -->
<rect width="750px" height="900px" fill="#ffffff" rx="15"/>
<!-- <text x="15" y="30" fill="#24292f" class="ascii">
  <tspan x="15" y="30">                                                            </tspan>
  <tspan x="15" y="50">                                                            </tspan>
  <tspan x="15" y="70">                         @$%88&amp;WMM&amp;                 </tspan>
  <tspan x="15" y="90">                      $Wohbdq0COpppkhkkhW@                  </tspan>
  <tspan x="15" y="110">                     #kkbkkkkkbddppkdZwqwb*%                </tspan>
  <tspan x="15" y="130">                    *ddbkkbhbppddqppppmpbkkk*B              </tspan>
  <tspan x="15" y="150">                  8hbwwqqZdam0Zwpwbkddkkhhhhda%             </tspan>
  <tspan x="15" y="170">                 $hakwmZmZkopZOQ0Zmkbkhkbhkbkhh$            </tspan>
  <tspan x="15" y="190">                 Baakkkdwpo#bbkq0OpkmOwkbqbkbok*            </tspan>
  <tspan x="15" y="210">                 Mho**abb*qvabhbqqhbqp0whbZZpbhk%           </tspan>
  <tspan x="15" y="230">                 &amp;*baa0vm0  qkkqwbhkb*ddhoopmpbb%           </tspan>
  <tspan x="15" y="250">              pUzncftfjun   fOpmcOcZt#kkhao*kddk            </tspan>
  <tspan x="15" y="270">              b tt]          +    ?n+O*ahkkaadpb            </tspan>
  <tspan x="15" y="290">               _f$|                   naahbddpqa            </tspan>
  <tspan x="15" y="310">              U [d             uuu     {xYqdpqpB            </tspan>
  <tspan x="15" y="330">        $YLM%t Lp?                     to0zvwbW             </tspan>
  <tspan x="15" y="350">       M[     /Ox                      up/  wW              </tspan>
  <tspan x="15" y="370">      W        }Xn                          &amp;               </tspan>
  <tspan x="15" y="390">    B{      -Q8  %1                        m                </tspan>
  <tspan x="15" y="410">   #]     -c@     k-                  -~}Q8                 </tspan>
  <tspan x="15" y="430"> w}      u         0                /m#8                    </tspan>
  <tspan x="15" y="450">Z        o          v          +_?/m@                       </tspan>
  <tspan x="15" y="470">        +           $U)]   _???- X                          </tspan>
  <tspan x="15" y="490">        C             a[          /a                        </tspan>
  <tspan x="15" y="510">        )fuUJQqadOYnjj              |0p*B                   </tspan>
  <tspan x="15" y="530">                                         _/O@               </tspan>
  <tspan x="15" y="550">                                            ?h              </tspan>
</text> -->

<!-- Profile Info -->

<text x="15" y="70" fill="#24292f">

<tspan x="18" y="65">hemanthp-txst</tspan> --------------------------------------------------------
<tspan x="18" y="90" class="cc">. </tspan><tspan class="key">About Me</tspan>: 
<tspan x="50" y="118" class="value">Hello, It is a pleasure to meet you. I am a Web and UX designer at </tspan>
<tspan x="50" y="137" class="value">Texas State University Libraries.</tspan>



<tspan x="18" y="170">- TechStack</tspan> ----------------------------------------------------------

<tspan x="18" y="200" class="cc">. </tspan><tspan class="key">IDE</tspan>:  
<tspan x="18" y="290" class="cc">. </tspan><tspan class="key">Languages</tspan>.<tspan class="key">Programming</tspan>:
<tspan x="18" y="390" class="cc">. </tspan><tspan class="key">Version Control</tspan>:
<tspan x="18" y="490" class="cc">. </tspan><tspan class="key">Web</tspan>.<tspan class="key">Frameworks</tspan>:
<tspan x="18" y="590" class="cc">. </tspan><tspan class="key">Databases</tspan>:

<tspan x="18" y="690" class="cc">. </tspan><tspan class="key">OS</tspan>:

<tspan x="18" y="795">- Github Stats</tspan> --------------------------------------------------------

<tspan x="20" y="825" class="cc">. </tspan><tspan class="key">Repos</tspan>:<tspan class="cc" id="repo_data_dots"> .............. </tspan><tspan class="value" id="repo_data">10</tspan> {<tspan class="key">Contributed</tspan>: <tspan class="value" id="contrib_data">0</tspan>} | <tspan class="key">Stars</tspan>:<tspan class="cc" id="star_data_dots"> ........... </tspan><tspan class="value" id="star_data">0</tspan>
<tspan x="20" y="850" class="cc">. </tspan><tspan class="key">Commmits</tspan>:<tspan class="cc" id="commit_data_dots"> ........................... </tspan><tspan class="value" id="commit_data">100</tspan> | <tspan class="key">Followers</tspan>:<tspan class="cc" id="follower_data_dots"> ....... </tspan><tspan class="value" id="follower_data">2</tspan>
<tspan x="20" y="875" class="cc">. </tspan><tspan class="key">Lines of Code on GitHub</tspan>:<tspan class="cc" id="loc_data_dots">............. </tspan><tspan class="value" id="loc_data">1000</tspan> ( <tspan class="addColor" id="loc_add">500</tspan><tspan class="addColor">++</tspan>, <tspan id="loc_del_dots"> </tspan><tspan class="delColor" id="loc_del">500</tspan><tspan class="delColor">--</tspan> )

</text>

<!-- Vs code -->
<image x="50" y="210" href="https://user-images.githubusercontent.com/74038190/212257465-7ce8d493-cac5-494e-982a-5a9deb852c4b.gif" width="50" height="50"/>

<!-- submlime -->
<image x="115" y="210" href="https://user-images.githubusercontent.com/74038190/212281756-450d3ffa-9335-4b98-a965-db8a18fee927.gif" width="50" height="50"/>

<!-- languages -->
<image x="60" y="310" href="https://user-images.githubusercontent.com/74038190/212257454-16e3712e-945a-4ca2-b238-408ad0bf87e6.gif" width="50" height="50"/>
<image x="115" y="310" href="https://user-images.githubusercontent.com/74038190/212257472-08e52665-c503-4bd9-aa20-f5a4dae769b5.gif" width="50" height="50"/>
<image x="170" y="310" href="https://github.com/Anmol-Baranwal/Cool-GIFs-For-GitHub/assets/74038190/29fd6286-4e7b-4d6c-818f-c4765d5e39a9" width="50" height="50"/>
<image x="220" y="310" href="https://github.com/Anmol-Baranwal/Cool-GIFs-For-GitHub/assets/74038190/67f477ed-6624-42da-99f0-1a7b1a16eecb" width="50" height="50"/>
<g transform="translate(280,320) scale(1)" clip-path="url(#prefix__clip0)"><path fill="#38bdf8" fill-rule="evenodd" d="M27 0c-7.2 0-11.7 3.6-13.5 10.8 2.7-3.6 5.85-4.95 9.45-4.05 2.054.513 3.522 2.004 5.147 3.653C30.744 13.09 33.808 16.2 40.5 16.2c7.2 0 11.7-3.6 13.5-10.8-2.7 3.6-5.85 4.95-9.45 4.05-2.054-.513-3.522-2.004-5.147-3.653C36.756 3.11 33.692 0 27 0zM13.5 16.2C6.3 16.2 1.8 19.8 0 27c2.7-3.6 5.85-4.95 9.45-4.05 2.054.514 3.522 2.004 5.147 3.653C17.244 29.29 20.308 32.4 27 32.4c7.2 0 11.7-3.6 13.5-10.8-2.7 3.6-5.85 4.95-9.45 4.05-2.054-.513-3.522-2.004-5.147-3.653C23.256 19.31 20.192 16.2 13.5 16.2z" clip-rule="evenodd"/></g><defs><clipPath id="prefix__clip0"><path fill="#fff" d="M0 0h54v32.4H0z"/></clipPath></defs>

<g transform="translate(340, 310) scale(1.1)">
<path fill="#00549d" fill-rule="evenodd" d="M22.903,3.286c0.679-0.381,1.515-0.381,2.193,0 c3.355,1.883,13.451,7.551,16.807,9.434C42.582,13.1,43,13.804,43,14.566c0,3.766,0,15.101,0,18.867 c0,0.762-0.418,1.466-1.097,1.847c-3.355,1.883-13.451,7.551-16.807,9.434c-0.679,0.381-1.515,0.381-2.193,0 c-3.355-1.883-13.451-7.551-16.807-9.434C5.418,34.899,5,34.196,5,33.434c0-3.766,0-15.101,0-18.867 c0-0.762,0.418-1.466,1.097-1.847C9.451,10.837,19.549,5.169,22.903,3.286z" clip-rule="evenodd"/><path fill="#0086d4" fill-rule="evenodd" d="M5.304,34.404C5.038,34.048,5,33.71,5,33.255 c0-3.744,0-15.014,0-18.759c0-0.758,0.417-1.458,1.094-1.836c3.343-1.872,13.405-7.507,16.748-9.38 c0.677-0.379,1.594-0.371,2.271,0.008c3.343,1.872,13.371,7.459,16.714,9.331c0.27,0.152,0.476,0.335,0.66,0.576L5.304,34.404z" clip-rule="evenodd"/><path fill="#fff" fill-rule="evenodd" d="M24,10c7.727,0,14,6.273,14,14s-6.273,14-14,14 s-14-6.273-14-14S16.273,10,24,10z M24,17c3.863,0,7,3.136,7,7c0,3.863-3.137,7-7,7s-7-3.137-7-7C17,20.136,20.136,17,24,17z" clip-rule="evenodd"/><path fill="#0075c0" fill-rule="evenodd" d="M42.485,13.205c0.516,0.483,0.506,1.211,0.506,1.784 c0,3.795-0.032,14.589,0.009,18.384c0.004,0.396-0.127,0.813-0.323,1.127L23.593,24L42.485,13.205z" clip-rule="evenodd"/><path fill="#fff" fill-rule="evenodd" d="M31 21H33V27H31zM38 21H40V27H38z" clip-rule="evenodd"/><path fill="#fff" fill-rule="evenodd" d="M29 23H35V25H29zM36 23H42V25H36z" clip-rule="evenodd"/></g>

<rect fill="#3178c6" height="50" rx="6" width="50" x="402" y="313" />
<g transform="translate(400, 313) scale(0.4)">
<path clip-rule="evenodd" d="m74.2622 99.468v14.026c2.2724 1.168 4.9598 2.045 8.0625 2.629 3.1027.585 6.3728.877 9.8105.877 3.3503 0 6.533-.321 9.5478-.964 3.016-.643 5.659-1.702 7.932-3.178 2.272-1.476 4.071-3.404 5.397-5.786 1.325-2.381 1.988-5.325 1.988-8.8313 0-2.5421-.379-4.7701-1.136-6.6841-.758-1.9139-1.85-3.6159-3.278-5.1062-1.427-1.4902-3.139-2.827-5.134-4.0104-1.996-1.1834-4.246-2.3011-6.752-3.353-1.8352-.7597-3.4812-1.4975-4.9378-2.2134-1.4567-.7159-2.6948-1.4464-3.7144-2.1915-1.0197-.7452-1.8063-1.5341-2.3598-2.3669-.5535-.8327-.8303-1.7751-.8303-2.827 0-.9643.2476-1.8336.7429-2.6079s1.1945-1.4391 2.0976-1.9943c.9031-.5551 2.0101-.9861 3.3211-1.2929 1.311-.3069 2.7676-.4603 4.3699-.4603 1.1658 0 2.3958.0877 3.6928.263 1.296.1753 2.6.4456 3.911.8109 1.311.3652 2.585.8254 3.824 1.3806 1.238.5552 2.381 1.198 3.43 1.9285v-13.1051c-2.127-.8182-4.45-1.4245-6.97-1.819s-5.411-.5917-8.6744-.5917c-3.3211 0-6.4674.3579-9.439 1.0738-2.9715.7159-5.5862 1.8336-7.844 3.353-2.2578 1.5195-4.0422 3.4553-5.3531 5.8075-1.311 2.3522-1.9665 5.1646-1.9665 8.4373 0 4.1785 1.2017 7.7433 3.6052 10.6945 2.4035 2.9513 6.0523 5.4496 10.9466 7.495 1.9228.7889 3.7145 1.5633 5.375 2.323 1.6606.7597 3.0954 1.5486 4.3044 2.3668s2.1628 1.7094 2.8618 2.6736c.7.9643 1.049 2.06 1.049 3.2873 0 .9062-.218 1.7462-.655 2.5202s-1.1 1.446-1.9885 2.016c-.8886.57-1.9956 1.016-3.3212 1.337-1.3255.321-2.8768.482-4.6539.482-3.0299 0-6.0305-.533-9.0021-1.6-2.9715-1.066-5.7245-2.666-8.2591-4.799zm-23.5596-34.9136h18.2974v-11.5544h-51v11.5544h18.2079v51.4456h14.4947z" fill="#fff" fill-rule="evenodd"/>
</g>

<!-- Version control -->
<image x="50" y="410" href="
https://user-images.githubusercontent.com/74038190/212257468-1e9a91f1-b626-4baa-b15d-5c385dfa7ed2.gif" width="50" height="50"/>


<image x="120" y="400" href="
https://user-images.githubusercontent.com/74038190/212281775-b468df30-4edc-4bf8-a4ee-f52e1aaddc86.gif" width="80" height="80"/>


<!-- Frameworks -->
<image x="50" y="510" href="https://user-images.githubusercontent.com/74038190/212257467-871d32b7-e401-42e8-a166-fcfd7baa4c6b.gif" width="50" height="50"/>
<image x="120" y="510" href="https://user-images.githubusercontent.com/74038190/212257460-738ff738-247f-4445-a718-cdd0ca76e2db.gif" width="50" height="50"/>
<g transform="translate(190,510) scale(2)">
<path d="M18.665 21.978C16.758 23.255 14.465 24 12 24 5.377 24 0 18.623 0 12S5.377 0 12 0s12 5.377 12 12c0 3.583-1.574 6.801-4.067 9.001L9.219 7.2H7.2v9.596h1.615V9.251l9.85 12.727Zm-3.332-8.533 1.6 2.061V7.2h-1.6v6.245Z"/>
</g>


<!-- Databases -->
<g transform="translate(50,610) scale(2)">
<path d="M23.5594 14.7228a.5269.5269 0 0 0-.0563-.1191c-.139-.2632-.4768-.3418-1.0074-.2321-1.6533.3411-2.2935.1312-2.5256-.0191 1.342-2.0482 2.445-4.522 3.0411-6.8297.2714-1.0507.7982-3.5237.1222-4.7316a1.5641 1.5641 0 0 0-.1509-.235C21.6931.9086 19.8007.0248 17.5099.0005c-1.4947-.0158-2.7705.3461-3.1161.4794a9.449 9.449 0 0 0-.5159-.0816 8.044 8.044 0 0 0-1.3114-.1278c-1.1822-.0184-2.2038.2642-3.0498.8406-.8573-.3211-4.7888-1.645-7.2219.0788C.9359 2.1526.3086 3.8733.4302 6.3043c.0409.818.5069 3.334 1.2423 5.7436.4598 1.5065.9387 2.7019 1.4334 3.582.553.9942 1.1259 1.5933 1.7143 1.7895.4474.1491 1.1327.1441 1.8581-.7279.8012-.9635 1.5903-1.8258 1.9446-2.2069.4351.2355.9064.3625 1.39.3772a.0569.0569 0 0 0 .0004.0041 11.0312 11.0312 0 0 0-.2472.3054c-.3389.4302-.4094.5197-1.5002.7443-.3102.064-1.1344.2339-1.1464.8115-.0025.1224.0329.2309.0919.3268.2269.4231.9216.6097 1.015.6331 1.3345.3335 2.5044.092 3.3714-.6787-.017 2.231.0775 4.4174.3454 5.0874.2212.5529.7618 1.9045 2.4692 1.9043.2505 0 .5263-.0291.8296-.0941 1.7819-.3821 2.5557-1.1696 2.855-2.9059.1503-.8707.4016-2.8753.5388-4.1012.0169-.0703.0357-.1207.057-.1362.0007-.0005.0697-.0471.4272.0307a.3673.3673 0 0 0 .0443.0068l.2539.0223.0149.001c.8468.0384 1.9114-.1426 2.5312-.4308.6438-.2988 1.8057-1.0323 1.5951-1.6698zM2.371 11.8765c-.7435-2.4358-1.1779-4.8851-1.2123-5.5719-.1086-2.1714.4171-3.6829 1.5623-4.4927 1.8367-1.2986 4.8398-.5408 6.108-.13-.0032.0032-.0066.0061-.0098.0094-2.0238 2.044-1.9758 5.536-1.9708 5.7495-.0002.0823.0066.1989.0162.3593.0348.5873.0996 1.6804-.0735 2.9184-.1609 1.1504.1937 2.2764.9728 3.0892.0806.0841.1648.1631.2518.2374-.3468.3714-1.1004 1.1926-1.9025 2.1576-.5677.6825-.9597.5517-1.0886.5087-.3919-.1307-.813-.5871-1.2381-1.3223-.4796-.839-.9635-2.0317-1.4155-3.5126zm6.0072 5.0871c-.1711-.0428-.3271-.1132-.4322-.1772.0889-.0394.2374-.0902.4833-.1409 1.2833-.2641 1.4815-.4506 1.9143-1.0002.0992-.126.2116-.2687.3673-.4426a.3549.3549 0 0 0 .0737-.1298c.1708-.1513.2724-.1099.4369-.0417.156.0646.3078.26.3695.4752.0291.1016.0619.2945-.0452.4444-.9043 1.2658-2.2216 1.2494-3.1676 1.0128zm2.094-3.988-.0525.141c-.133.3566-.2567.6881-.3334 1.003-.6674-.0021-1.3168-.2872-1.8105-.8024-.6279-.6551-.9131-1.5664-.7825-2.5004.1828-1.3079.1153-2.4468.079-3.0586-.005-.0857-.0095-.1607-.0122-.2199.2957-.2621 1.6659-.9962 2.6429-.7724.4459.1022.7176.4057.8305.928.5846 2.7038.0774 3.8307-.3302 4.7363-.084.1866-.1633.3629-.2311.5454zm7.3637 4.5725c-.0169.1768-.0358.376-.0618.5959l-.146.4383a.3547.3547 0 0 0-.0182.1077c-.0059.4747-.054.6489-.115.8693-.0634.2292-.1353.4891-.1794 1.0575-.11 1.4143-.8782 2.2267-2.4172 2.5565-1.5155.3251-1.7843-.4968-2.0212-1.2217a6.5824 6.5824 0 0 0-.0769-.2266c-.2154-.5858-.1911-1.4119-.1574-2.5551.0165-.5612-.0249-1.9013-.3302-2.6462.0044-.2932.0106-.5909.019-.8918a.3529.3529 0 0 0-.0153-.1126 1.4927 1.4927 0 0 0-.0439-.208c-.1226-.4283-.4213-.7866-.7797-.9351-.1424-.059-.4038-.1672-.7178-.0869.067-.276.1831-.5875.309-.9249l.0529-.142c.0595-.16.134-.3257.213-.5012.4265-.9476 1.0106-2.2453.3766-5.1772-.2374-1.0981-1.0304-1.6343-2.2324-1.5098-.7207.0746-1.3799.3654-1.7088.5321a5.6716 5.6716 0 0 0-.1958.1041c.0918-1.1064.4386-3.1741 1.7357-4.4823a4.0306 4.0306 0 0 1 .3033-.276.3532.3532 0 0 0 .1447-.0644c.7524-.5706 1.6945-.8506 2.802-.8325.4091.0067.8017.0339 1.1742.081 1.939.3544 3.2439 1.4468 4.0359 2.3827.8143.9623 1.2552 1.9315 1.4312 2.4543-1.3232-.1346-2.2234.1268-2.6797.779-.9926 1.4189.543 4.1729 1.2811 5.4964.1353.2426.2522.4522.2889.5413.2403.5825.5515.9713.7787 1.2552.0696.087.1372.1714.1885.245-.4008.1155-1.1208.3825-1.0552 1.717-.0123.1563-.0423.4469-.0834.8148-.0461.2077-.0702.4603-.0994.7662zm.8905-1.6211c-.0405-.8316.2691-.9185.5967-1.0105a2.8566 2.8566 0 0 0 .135-.0406 1.202 1.202 0 0 0 .1342.103c.5703.3765 1.5823.4213 3.0068.1344-.2016.1769-.5189.3994-.9533.6011-.4098.1903-1.0957.333-1.7473.3636-.7197.0336-1.0859-.0807-1.1721-.151zm.5695-9.2712c-.0059.3508-.0542.6692-.1054 1.0017-.055.3576-.112.7274-.1264 1.1762-.0142.4368.0404.8909.0932 1.3301.1066.887.216 1.8003-.2075 2.7014a3.5272 3.5272 0 0 1-.1876-.3856c-.0527-.1276-.1669-.3326-.3251-.6162-.6156-1.1041-2.0574-3.6896-1.3193-4.7446.3795-.5427 1.3408-.5661 2.1781-.463zm.2284 7.0137a12.3762 12.3762 0 0 0-.0853-.1074l-.0355-.0444c.7262-1.1995.5842-2.3862.4578-3.4385-.0519-.4318-.1009-.8396-.0885-1.2226.0129-.4061.0666-.7543.1185-1.0911.0639-.415.1288-.8443.1109-1.3505.0134-.0531.0188-.1158.0118-.1902-.0457-.4855-.5999-1.938-1.7294-3.253-.6076-.7073-1.4896-1.4972-2.6889-2.0395.5251-.1066 1.2328-.2035 2.0244-.1859 2.0515.0456 3.6746.8135 4.8242 2.2824a.908.908 0 0 1 .0667.1002c.7231 1.3556-.2762 6.2751-2.9867 10.5405zm-8.8166-6.1162c-.025.1794-.3089.4225-.6211.4225a.5821.5821 0 0 1-.0809-.0056c-.1873-.026-.3765-.144-.5059-.3156-.0458-.0605-.1203-.178-.1055-.2844.0055-.0401.0261-.0985.0925-.1488.1182-.0894.3518-.1226.6096-.0867.3163.0441.6426.1938.6113.4186zm7.9305-.4114c.0111.0792-.049.201-.1531.3102-.0683.0717-.212.1961-.4079.2232a.5456.5456 0 0 1-.075.0052c-.2935 0-.5414-.2344-.5607-.3717-.024-.1765.2641-.3106.5611-.352.297-.0414.6111.0088.6356.1851z"/>
</g>
<g transform="translate(120,600) scale(2.5)">
<path d="M16.405 5.501c-.115 0-.193.014-.274.033v.013h.014c.054.104.146.18.214.273.054.107.1.214.154.32l.014-.015c.094-.066.14-.172.14-.333-.04-.047-.046-.094-.08-.14-.04-.067-.126-.1-.18-.153zM5.77 18.695h-.927a50.854 50.854 0 00-.27-4.41h-.008l-1.41 4.41H2.45l-1.4-4.41h-.01a72.892 72.892 0 00-.195 4.41H0c.055-1.966.192-3.81.41-5.53h1.15l1.335 4.064h.008l1.347-4.064h1.095c.242 2.015.384 3.86.428 5.53zm4.017-4.08c-.378 2.045-.876 3.533-1.492 4.46-.482.716-1.01 1.073-1.583 1.073-.153 0-.34-.046-.566-.138v-.494c.11.017.24.026.386.026.268 0 .483-.075.647-.222.197-.18.295-.382.295-.605 0-.155-.077-.47-.23-.944L6.23 14.615h.91l.727 2.36c.164.536.233.91.205 1.123.4-1.064.678-2.227.835-3.483zm12.325 4.08h-2.63v-5.53h.885v4.85h1.745zm-3.32.135l-1.016-.5c.09-.076.177-.158.255-.25.433-.506.648-1.258.648-2.253 0-1.83-.718-2.746-2.155-2.746-.704 0-1.254.232-1.65.697-.43.508-.646 1.256-.646 2.245 0 .972.19 1.686.574 2.14.35.41.877.615 1.583.615.264 0 .506-.033.725-.098l1.325.772.36-.622zM15.5 17.588c-.225-.36-.337-.94-.337-1.736 0-1.393.424-2.09 1.27-2.09.443 0 .77.167.977.5.224.362.336.936.336 1.723 0 1.404-.424 2.108-1.27 2.108-.445 0-.77-.167-.978-.5zm-1.658-.425c0 .47-.172.856-.516 1.156-.344.3-.803.45-1.384.45-.543 0-1.064-.172-1.573-.515l.237-.476c.438.22.833.328 1.19.328.332 0 .593-.073.783-.22a.754.754 0 00.3-.615c0-.33-.23-.61-.648-.845-.388-.213-1.163-.657-1.163-.657-.422-.307-.632-.636-.632-1.177 0-.45.157-.81.47-1.085.315-.278.72-.415 1.22-.415.512 0 .98.136 1.4.41l-.213.476a2.726 2.726 0 00-1.064-.23c-.283 0-.502.068-.654.206a.685.685 0 00-.248.524c0 .328.234.61.666.85.393.215 1.187.67 1.187.67.433.305.648.63.648 1.168zm9.382-5.852c-.535-.014-.95.04-1.297.188-.1.04-.26.04-.274.167.055.053.063.14.11.214.08.134.218.313.346.407.14.11.28.216.427.31.26.16.555.255.81.416.145.094.293.213.44.313.073.05.12.14.214.172v-.02c-.046-.06-.06-.147-.105-.214-.067-.067-.134-.127-.2-.193a3.223 3.223 0 00-.695-.675c-.214-.146-.682-.35-.77-.595l-.013-.014c.146-.013.32-.066.46-.106.227-.06.435-.047.67-.106.106-.027.213-.06.32-.094v-.06c-.12-.12-.21-.283-.334-.395a8.867 8.867 0 00-1.104-.823c-.21-.134-.476-.22-.697-.334-.08-.04-.214-.06-.26-.127-.12-.146-.19-.34-.275-.514a17.69 17.69 0 01-.547-1.163c-.12-.262-.193-.523-.34-.763-.69-1.137-1.437-1.826-2.586-2.5-.247-.14-.543-.2-.856-.274-.167-.008-.334-.02-.5-.027-.11-.047-.216-.174-.31-.235-.38-.24-1.364-.76-1.644-.072-.18.434.267.862.422 1.082.115.153.26.328.34.5.047.116.06.235.107.356.106.294.207.622.347.897.073.14.153.287.247.413.054.073.146.107.167.227-.094.136-.1.334-.154.5-.24.757-.146 1.693.194 2.25.107.166.362.534.703.393.3-.12.234-.5.32-.835.02-.08.007-.133.048-.187v.015c.094.188.188.367.274.555.206.328.566.668.867.895.16.12.287.328.487.402v-.02h-.015c-.043-.058-.1-.086-.154-.133a3.445 3.445 0 01-.35-.4 8.76 8.76 0 01-.747-1.218c-.11-.21-.202-.436-.29-.643-.04-.08-.04-.2-.107-.24-.1.146-.247.273-.32.453-.127.288-.14.642-.188 1.01-.027.007-.014 0-.027.014-.214-.052-.287-.274-.367-.46-.2-.475-.233-1.238-.06-1.785.047-.14.247-.582.167-.716-.042-.127-.174-.2-.247-.303a2.478 2.478 0 01-.24-.427c-.16-.374-.24-.788-.414-1.162-.08-.173-.22-.354-.334-.513-.127-.18-.267-.307-.368-.52-.033-.073-.08-.194-.027-.274.014-.054.042-.075.094-.09.088-.072.335.022.422.062.247.1.455.194.662.334.094.066.195.193.315.226h.14c.214.047.455.014.655.073.355.114.675.28.962.46a5.953 5.953 0 012.085 2.286c.08.154.115.295.188.455.14.33.313.663.455.982.14.315.275.636.476.897.1.14.502.213.682.286.133.06.34.115.46.188.23.14.454.3.67.454.11.076.443.243.463.378z"/>
</g>
<g transform="translate(190,610) scale(2)">
<path d="M17.193 9.555c-1.264-5.58-4.252-7.414-4.573-8.115-.28-.394-.53-.954-.735-1.44-.036.495-.055.685-.523 1.184-.723.566-4.438 3.682-4.74 10.02-.282 5.912 4.27 9.435 4.888 9.884l.07.05A73.49 73.49 0 0111.91 24h.481c.114-1.032.284-2.056.51-3.07.417-.296.604-.463.85-.693a11.342 11.342 0 003.639-8.464c.01-.814-.103-1.662-.197-2.218zm-5.336 8.195s0-8.291.275-8.29c.213 0 .49 10.695.49 10.695-.381-.045-.765-1.76-.765-2.405z"/>
</g>

<!-- Os -->
<g transform="translate(50,710) scale(2)">
<path d="M12.504 0c-.155 0-.315.008-.48.021-4.226.333-3.105 4.807-3.17 6.298-.076 1.092-.3 1.953-1.05 3.02-.885 1.051-2.127 2.75-2.716 4.521-.278.832-.41 1.684-.287 2.489a.424.424 0 00-.11.135c-.26.268-.45.6-.663.839-.199.199-.485.267-.797.4-.313.136-.658.269-.864.68-.09.189-.136.394-.132.602 0 .199.027.4.055.536.058.399.116.728.04.97-.249.68-.28 1.145-.106 1.484.174.334.535.47.94.601.81.2 1.91.135 2.774.6.926.466 1.866.67 2.616.47.526-.116.97-.464 1.208-.946.587-.003 1.23-.269 2.26-.334.699-.058 1.574.267 2.577.2.025.134.063.198.114.333l.003.003c.391.778 1.113 1.132 1.884 1.071.771-.06 1.592-.536 2.257-1.306.631-.765 1.683-1.084 2.378-1.503.348-.199.629-.469.649-.853.023-.4-.2-.811-.714-1.376v-.097l-.003-.003c-.17-.2-.25-.535-.338-.926-.085-.401-.182-.786-.492-1.046h-.003c-.059-.054-.123-.067-.188-.135a.357.357 0 00-.19-.064c.431-1.278.264-2.55-.173-3.694-.533-1.41-1.465-2.638-2.175-3.483-.796-1.005-1.576-1.957-1.56-3.368.026-2.152.236-6.133-3.544-6.139zm.529 3.405h.013c.213 0 .396.062.584.198.19.135.33.332.438.533.105.259.158.459.166.724 0-.02.006-.04.006-.06v.105a.086.086 0 01-.004-.021l-.004-.024a1.807 1.807 0 01-.15.706.953.953 0 01-.213.335.71.71 0 00-.088-.042c-.104-.045-.198-.064-.284-.133a1.312 1.312 0 00-.22-.066c.05-.06.146-.133.183-.198.053-.128.082-.264.088-.402v-.02a1.21 1.21 0 00-.061-.4c-.045-.134-.101-.2-.183-.333-.084-.066-.167-.132-.267-.132h-.016c-.093 0-.176.03-.262.132a.8.8 0 00-.205.334 1.18 1.18 0 00-.09.4v.019c.002.089.008.179.02.267-.193-.067-.438-.135-.607-.202a1.635 1.635 0 01-.018-.2v-.02a1.772 1.772 0 01.15-.768c.082-.22.232-.406.43-.533a.985.985 0 01.594-.2zm-2.962.059h.036c.142 0 .27.048.399.135.146.129.264.288.344.465.09.199.14.4.153.667v.004c.007.134.006.2-.002.266v.08c-.03.007-.056.018-.083.024-.152.055-.274.135-.393.2.012-.09.013-.18.003-.267v-.015c-.012-.133-.04-.2-.082-.333a.613.613 0 00-.166-.267.248.248 0 00-.183-.064h-.021c-.071.006-.13.04-.186.132a.552.552 0 00-.12.27.944.944 0 00-.023.33v.015c.012.135.037.2.08.334.046.134.098.2.166.268.01.009.02.018.034.024-.07.057-.117.07-.176.136a.304.304 0 01-.131.068 2.62 2.62 0 01-.275-.402 1.772 1.772 0 01-.155-.667 1.759 1.759 0 01.08-.668 1.43 1.43 0 01.283-.535c.128-.133.26-.2.418-.2zm1.37 1.706c.332 0 .733.065 1.216.399.293.2.523.269 1.052.468h.003c.255.136.405.266.478.399v-.131a.571.571 0 01.016.47c-.123.31-.516.643-1.063.842v.002c-.268.135-.501.333-.775.465-.276.135-.588.292-1.012.267a1.139 1.139 0 01-.448-.067 3.566 3.566 0 01-.322-.198c-.195-.135-.363-.332-.612-.465v-.005h-.005c-.4-.246-.616-.512-.686-.71-.07-.268-.005-.47.193-.6.224-.135.38-.271.483-.336.104-.074.143-.102.176-.131h.002v-.003c.169-.202.436-.47.839-.601.139-.036.294-.065.466-.065zm2.8 2.142c.358 1.417 1.196 3.475 1.735 4.473.286.534.855 1.659 1.102 3.024.156-.005.33.018.513.064.646-1.671-.546-3.467-1.089-3.966-.22-.2-.232-.335-.123-.335.59.534 1.365 1.572 1.646 2.757.13.535.16 1.104.021 1.67.067.028.135.06.205.067 1.032.534 1.413.938 1.23 1.537v-.043c-.06-.003-.12 0-.18 0h-.016c.151-.467-.182-.825-1.065-1.224-.915-.4-1.646-.336-1.77.465-.008.043-.013.066-.018.135-.068.023-.139.053-.209.064-.43.268-.662.669-.793 1.187-.13.533-.17 1.156-.205 1.869v.003c-.02.334-.17.838-.319 1.35-1.5 1.072-3.58 1.538-5.348.334a2.645 2.645 0 00-.402-.533 1.45 1.45 0 00-.275-.333c.182 0 .338-.03.465-.067a.615.615 0 00.314-.334c.108-.267 0-.697-.345-1.163-.345-.467-.931-.995-1.788-1.521-.63-.4-.986-.87-1.15-1.396-.165-.534-.143-1.085-.015-1.645.245-1.07.873-2.11 1.274-2.763.107-.065.037.135-.408.974-.396.751-1.14 2.497-.122 3.854a8.123 8.123 0 01.647-2.876c.564-1.278 1.743-3.504 1.836-5.268.048.036.217.135.289.202.218.133.38.333.59.465.21.201.477.335.876.335.039.003.075.006.11.006.412 0 .73-.134.997-.268.29-.134.52-.334.74-.4h.005c.467-.135.835-.402 1.044-.7zm2.185 8.958c.037.6.343 1.245.882 1.377.588.134 1.434-.333 1.791-.765l.211-.01c.315-.007.577.01.847.268l.003.003c.208.199.305.53.391.876.085.4.154.78.409 1.066.486.527.645.906.636 1.14l.003-.007v.018l-.003-.012c-.015.262-.185.396-.498.595-.63.401-1.746.712-2.457 1.57-.618.737-1.37 1.14-2.036 1.191-.664.053-1.237-.2-1.574-.898l-.005-.003c-.21-.4-.12-1.025.056-1.69.176-.668.428-1.344.463-1.897.037-.714.076-1.335.195-1.814.12-.465.308-.797.641-.984l.045-.022zm-10.814.049h.01c.053 0 .105.005.157.014.376.055.706.333 1.023.752l.91 1.664.003.003c.243.533.754 1.064 1.189 1.637.434.598.77 1.131.729 1.57v.006c-.057.744-.48 1.148-1.125 1.294-.645.135-1.52.002-2.395-.464-.968-.536-2.118-.469-2.857-.602-.369-.066-.61-.2-.723-.4-.11-.2-.113-.602.123-1.23v-.004l.002-.003c.117-.334.03-.752-.027-1.118-.055-.401-.083-.71.043-.94.16-.334.396-.4.69-.533.294-.135.64-.202.915-.47h.002v-.002c.256-.268.445-.601.668-.838.19-.201.38-.336.663-.336zm7.159-9.074c-.435.201-.945.535-1.488.535-.542 0-.97-.267-1.28-.466-.154-.134-.28-.268-.373-.335-.164-.134-.144-.333-.074-.333.109.016.129.134.199.2.096.066.215.2.36.333.292.2.68.467 1.167.467.485 0 1.053-.267 1.398-.466.195-.135.445-.334.648-.467.156-.136.149-.267.279-.267.128.016.034.134-.147.332a8.097 8.097 0 01-.69.468zm-1.082-1.583V5.64c-.006-.02.013-.042.029-.05.074-.043.18-.027.26.004.063 0 .16.067.15.135-.006.049-.085.066-.135.066-.055 0-.092-.043-.141-.068-.052-.018-.146-.008-.163-.065zm-.551 0c-.02.058-.113.049-.166.066-.047.025-.086.068-.14.068-.05 0-.13-.02-.136-.068-.01-.066.088-.133.15-.133.08-.031.184-.047.259-.005.019.009.036.03.03.05v.02h.003z"/>
</g>

<g transform="translate(120,695) scale(3.5)">
<path d="M0 14.727h.941v-2.453c0-.484.318-.835.771-.835.439 0 .71.276.71.722v2.566h.915V12.25c0-.48.31-.812.764-.812.46 0 .718.28.718.77v2.518h.94v-2.748c0-.801-.517-1.334-1.307-1.334-.578 0-1.054.31-1.247.805h-.023c-.147-.514-.552-.805-1.118-.805-.545 0-.968.306-1.142.771H.903v-.695H0v4.006zm7.82-.646c-.408 0-.68-.208-.68-.537 0-.318.26-.522.714-.552l.926-.057v.307c0 .483-.427.839-.96.839zm-.284.71c.514 0 1.017-.268 1.248-.703h.018v.639h.908v-2.76c0-.804-.647-1.33-1.64-1.33-1.021 0-1.66.537-1.701 1.285h.873c.06-.332.344-.548.79-.548.464 0 .748.242.748.662v.287l-1.058.06c-.976.061-1.524.488-1.524 1.199 0 .721.564 1.209 1.338 1.209zm6.305-2.642c-.065-.843-.719-1.512-1.777-1.512-1.164 0-1.92.805-1.92 2.087 0 1.3.756 2.082 1.928 2.082 1.005 0 1.697-.59 1.772-1.485h-.888c-.087.453-.397.725-.873.725-.597 0-.982-.483-.982-1.322 0-.824.381-1.323.975-1.323.502 0 .8.321.876.748h.889zm2.906-2.967c-1.591 0-2.589 1.085-2.589 2.82 0 1.735.998 2.816 2.59 2.816 1.586 0 2.584-1.081 2.584-2.816 0-1.735-.997-2.82-2.585-2.82zm0 .832c.971 0 1.591.77 1.591 1.988 0 1.213-.62 1.984-1.59 1.984-.976 0-1.592-.77-1.592-1.984 0-1.217.616-1.988 1.591-1.988zm2.982 3.178c.042 1.006.866 1.626 2.12 1.626 1.32 0 2.151-.65 2.151-1.686 0-.813-.469-1.27-1.576-1.523l-.627-.144c-.67-.158-.945-.37-.945-.733 0-.453.415-.756 1.032-.756.623 0 1.05.306 1.096.817h.93c-.023-.96-.817-1.61-2.019-1.61-1.187 0-2.03.653-2.03 1.62 0 .78.477 1.263 1.482 1.494l.707.166c.688.163.967.39.967.782 0 .454-.457.779-1.115.779-.665 0-1.167-.329-1.228-.832h-.945z"/>
</g>

</svg>


